<?xml version="1.0" encoding="UTF-8"?>
<svg id="Capa_2" data-name="Capa 2" xmlns="http://www.w3.org/2000/svg" viewBox="0 0 1263.44 393.06">
  <defs>
    <style>
      .cls-1 {
        fill: #f0590e;
      }

      .cls-2 {
        fill: #001821;
      }
    </style>
  </defs>
  <g>
    <path class="cls-2" d="M295.68,299.75l-35.52-105.83h21.69l31.82,95.82,31.82-95.82h21.81l-35.52,105.83c-2.62,7.75-7.27,15.49-18.11,15.49s-15.49-7.75-18-15.49Z"/>
    <path class="cls-2" d="M376.71,253.26c0-35.28,24.67-62.93,61.62-62.93s59.83,28.01,59.83,60.66c0,4.17,0,6.91-.24,9.06h-99.28c2.86,23.12,20.38,36.71,42.43,36.71,20.14,0,29.56-8.82,38.38-18.12l15.14,13.47c-11.68,13.59-28.6,24.55-53.87,24.55-36.83,0-64-24.79-64-63.4ZM399.71,241.11h74.37c-2.98-16.92-15.37-30.87-35.75-30.87s-34.44,12.75-38.62,30.87Z"/>
    <path class="cls-2" d="M521.26,253.03c0-38.61,22.05-59.11,60.9-59.11v21.45c-29.91,0-39.45,14.06-39.45,42.31v55.42h-21.45v-60.07Z"/>
    <path class="cls-2" d="M601.58,267.21v-106.67h21.45v33.37h33.49v18.95h-33.49v49.82c0,19.66,8.7,31.46,28.25,31.46h3.1v18.95h-3.1c-29.68,0-49.7-16.57-49.7-45.89Z"/>
    <path class="cls-2" d="M675.23,163.04c0-8.22,6.2-14.42,14.42-14.42s14.42,6.2,14.42,14.42-6.2,14.42-14.42,14.42-14.42-6.2-14.42-14.42ZM678.92,193.91h21.45v119.18h-21.45v-119.18Z"/>
    <path class="cls-2" d="M726.23,253.5c0-34.8,24.08-63.17,65.79-63.17,17.76,0,30.15,5.96,36.95,11.2v24.31c-8.46-7.87-20.62-14.9-36.11-14.9-26.34,0-44.34,17.28-44.34,42.55s18,42.55,44.34,42.55c15.49,0,27.65-7.03,36.11-14.9v24.31c-6.79,5.24-19.19,11.2-36.95,11.2-41.71,0-65.79-28.37-65.79-63.17Z"/>
    <path class="cls-2" d="M971.97,253.38v59.71h-21.45v-17.76c-8.46,12.16-24.43,21.33-43.86,21.33-36.47,0-61.38-29.2-61.38-63.28s25.74-63.05,63.28-63.05c40.16,0,63.41,30.51,63.41,63.05ZM867.57,253.38c0,23.36,16.8,42.67,41,42.67,25.51,0,41-20.5,41-42.67s-15.49-42.43-41-42.43-41,19.78-41,42.43Z"/>
    <path class="cls-2" d="M1003.19,146.24h21.45v166.85h-21.45v-166.85Z"/>
  </g>
  <path class="cls-1" d="M145.66,0l14.9,106.66c2.54-.18,2.29,1.52,3.62,3.05l.74-2.47h1.48c.39.37.68,7.61.49,8.64-.26,1.38-2.25,2.39-2.31,4.35l3.03,25.58c.85,1.27,3.39-.36,4.56-.38,2.69-.04,2.67,4.34,3.39,4.32,3.12-1.12,5.51-4.36,9.27-3.47.45.11.15,1.37,1.56,1,.99-1.88,4.82-4.93,4.71-7.14-.06-1.12-1.35-2.58-1.73-3.75-1.87-5.72-.94-6.97-1.25-12.08-.1-1.56-1.57-2.97-1.5-5.46.05-1.76,1.23-3.41,1.03-4.9-.33-2.47-3.61-2.47-1.84-6.33.58-1.27,2.33-2.56,3.03-3.89,1.02-1.95,2.75-8.01,4.11-9.37.62-.62,3.6-2.26,4.57-2.71,12.68-5.86,25.32,2.24,26.67,15.83.2,2.01-.04,8.39-.48,10.28-.13.57-1.59.57-1.9,1.67-.26.91.09,1.95-.1,2.79-.06.25-1.85,3.57-2.17,4.34-1.61,3.9-3.49,7.54-3.75,11.81,3.25-.09,6.67-.02,9.67,1.46.82,1.22-1.13,2.51-.76,3.69.22.71,1.42.59,1.99,1.13,4.64,4.39,9.06,17.8,8.37,24.12-.23,2.13-1.14,7.78-1.59,9.78-.48,2.16-3.32,5.66-3.73,8.13-.48,2.85.49,4.23-1.39,7.01-1.39,2.06-3.17,1.82-2.66,5.19.18,1.2,1.11,1.98,1.01,3.49-.3,4.69-5.46,7.26-7.95,10.38-1.87,2.35-3.14,6.04-5.44,8.4-.8.82-3.11,1.96-3.48,2.57-.85,1.42.17,2.79-.5,3.78-2.22,3.28-9.79,8.81-13.13,11.86-1.86,1.7-3.46,4.2-5.65,5.96-2.96,2.39-13.71,10.09-16.84,10.82-2.83.66-11.79.52-14.91.27-4.97-.39-7.89-1.28-11.42-4.82l-.98.94-16.11,118.05-3.9.05,16.25-121.02c-1.99-3.19-12.59,6.96-14.07,8.76l-3.17-.42c-.18,4.04.94,7.99.44,12.05-1.36,11.04-14.87,30.43-20.7,40.46-1.2,2.06-.8,2.74-1.7,4.82-1.33,3.06-2.43,2.03-2.25,6.69.25,6.2-.96,9-1.46,14.81-.16,1.87.13,3.78-.03,5.65-2.73.66-5.52.12-8.27-.33-5.61-.93-9.89-3-14.88-4.37-7.49-2.06-14.52-3.08-21.9-6.25-2.56-1.1-9.2-4.59-8.18-7.96.16-.52,4.06-4,4.75-4.18,2.58-.67,8.13,2.93,9.77,2.19.57-.26.68-1.14,1.34-1.5,3.02-1.66,4.74-2.38,7.65-4.28,3.36-2.19,8.35-.09,11.63-1.08.26-.08,4.47-2.8,4.64-3.02.53-.68,1.09-3.02,1.91-4.27,2.6-3.97,5.69-5.21,7.48-10.3,3.56-10.12,8.03-25.4,8.55-35.92.27-5.39-1.51-11.66,2.4-15.84-4.85-3.32-8.72-7.78-11.39-13-.34-.22-.73-.15-1.1-.09-1.79.32-10.97,7.66-14.1,9.16-15.78,7.57-34.5,3.29-50.75,10.49-1.98.88-3.98,3.85-6.63,4.73-1.8.59-7.33,1.68-8.2-.51-.68-4.81-3.16-9.34-4.31-13.97-.75-3.03-.6-6.76-1.47-9.4-.81-2.44-3.08-5.63-3.95-7.9C3.53,221.83,0,211.47,0,208.79c0-3.6,1.93-6.41,5.76-6.55,2.74-.1,4.06,5.01,5.37,6.77.69.93,1.73,1.24,2.2,1.89.95,1.32,3.63,6.3,4.45,6.8.92.56,1.82-.24,2.49,0,.99.35,7.69,7.71,8.25,8.99.86,1.95.77,4.59,2.61,6.31,1.7,1.59,9.01,1.17,11.31.48,9.18-2.75,26.18-9.35,34.53-13.87,4.29-2.32,8.23-8.53,12.4-10.33,1.34-.58,3.21-.65,4.57-1.35,1.24-.64,2.27-2.3,3.7-2.73,5.1-1.53,8.7.71,13.34,1.23.81.09,1.56-.39,2.28-.31,4.71.51,11.78,1.75,16.33.91,1.46-.27,2.6-1.87,3.88-2.54,2.08-1.09,4.03-1.54,5.97-2.43,1.02-.47,5.48-3.67,6.22-2.91l.24,1.48,6.42-3.96c.32-1.69,1.65-4,2.02-5.4.23-.89.21-.91-.54-1.51-4.3,3-7.93,4.47-13.26,3.4l-.58-.41c.26-2.94-2.41-5.23-2.71-7.67-1.4-11.66,6.52-28.9,9.74-40.68.86-3.15,1.39-10.72,3.76-12.79.84-.73,2.54-1.17,3.55-2.14,2.72-2.63,1.86-9.42,3.24-13.09L141.21.26,145.66,0ZM161.92,148.71c1.11-3.68.29-6.22-3.91-6.38l.98,6.42,2.93-.04ZM156.03,163.33c.54-1.9,0-10.14,0-12.85,0-.39-1.2-.99-1.72-.74l-.66.82-2.06,15.48c.88.88,4.24-1.99,4.44-2.72Z"/>
  <g>
    <path class="cls-1" d="M1068.67,304.73h14.89c6.36,0,8.79-2.49,8.79-5.77,0-2.54-1.27-4.24-7.2-7.63l-4.82-2.75c-6.73-3.71-11.6-8.16-11.6-14.99,0-8.26,6.2-13.4,16.74-13.4h14.04v8.42h-14.41c-4.02,0-6.46,1.8-6.46,4.66s2.07,4.61,6.62,7.2l5.77,3.34c8.1,4.61,11.23,8.58,11.23,14.78,0,10.33-8.53,14.57-17.75,14.57h-15.84v-8.42Z"/>
    <path class="cls-1" d="M1168.27,286.62c0,15.15-11.07,28.13-27.28,28.13-8.63,0-15.73-4.08-19.49-9.32v28.92h-9.54v-47.73c0-14.46,10.33-28.02,28.13-28.02,16.74,0,28.18,12.4,28.18,28.02ZM1121.86,286.62c0,9.85,6.94,18.97,18.22,18.97s18.22-8.58,18.22-18.97-7.2-18.86-18.22-18.86-18.22,9.11-18.22,18.86Z"/>
    <path class="cls-1" d="M1232.22,286.62v26.54h-9.53v-7.89c-3.76,5.4-10.86,9.48-19.49,9.48-16.21,0-27.28-12.98-27.28-28.13s11.44-28.02,28.13-28.02c17.85,0,28.18,13.56,28.18,28.02ZM1185.82,286.62c0,10.38,7.47,18.97,18.22,18.97,11.34,0,18.22-9.11,18.22-18.97s-6.89-18.86-18.22-18.86-18.22,8.79-18.22,18.86Z"/>
    <path class="cls-1" d="M1244,307.75c0-3.92,3.02-6.99,6.99-6.99s6.99,3.07,6.99,6.99-3.18,6.99-6.99,6.99-6.99-3.07-6.99-6.99Z"/>
  </g>
</svg>