<?xml version="1.0" encoding="UTF-8"?>
<svg id="Capa_2" data-name="Capa 2" xmlns="http://www.w3.org/2000/svg" viewBox="0 0 390.48 159.91">
  <defs>
    <style>
      .cls-1 {
        fill: #f0590e;
      }

      .cls-2 {
        fill: #001821;
      }
    </style>
  </defs>
  <path class="cls-1" d="M62.85,0l6.43,46.02c1.1-.08.99.66,1.56,1.31l.32-1.07h.64c.17.16.29,3.28.21,3.73-.11.6-.97,1.03-1,1.88l1.31,11.04c.37.55,1.46-.16,1.97-.16,1.16-.02,1.15,1.87,1.46,1.87,1.35-.48,2.38-1.88,4-1.5.19.05.06.59.67.43.43-.81,2.08-2.13,2.03-3.08-.02-.48-.58-1.11-.75-1.62-.81-2.47-.4-3.01-.54-5.21-.04-.67-.68-1.28-.65-2.36.02-.76.53-1.47.44-2.12-.14-1.07-1.56-1.07-.79-2.73.25-.55,1.01-1.1,1.31-1.68.44-.84,1.19-3.46,1.77-4.04.27-.27,1.56-.98,1.97-1.17,5.47-2.53,10.92.97,11.51,6.83.09.87-.02,3.62-.21,4.43-.06.25-.68.25-.82.72-.11.39.04.84-.04,1.2-.02.11-.8,1.54-.94,1.87-.69,1.68-1.51,3.25-1.62,5.1,1.4-.04,2.88,0,4.17.63.35.52-.49,1.08-.33,1.59.1.31.61.25.86.49,2,1.89,3.91,7.68,3.61,10.41-.1.92-.49,3.36-.68,4.22-.21.93-1.43,2.44-1.61,3.51-.21,1.23.21,1.83-.6,3.03-.6.89-1.37.78-1.15,2.24.08.52.48.86.44,1.51-.13,2.02-2.35,3.13-3.43,4.48-.81,1.01-1.36,2.6-2.35,3.62-.34.35-1.34.85-1.5,1.11-.36.61.07,1.21-.22,1.63-.96,1.42-4.22,3.8-5.66,5.12-.8.74-1.49,1.81-2.44,2.57-1.28,1.03-5.91,4.35-7.27,4.67-1.22.29-5.09.22-6.43.12-2.14-.17-3.4-.55-4.93-2.08l-.42.4-6.95,50.93-1.68.02,7.01-52.21c-.86-1.37-5.43,3-6.07,3.78l-1.37-.18c-.08,1.74.41,3.45.19,5.2-.59,4.76-6.41,13.13-8.93,17.46-.52.89-.35,1.18-.74,2.08-.57,1.32-1.05.88-.97,2.89.11,2.68-.42,3.88-.63,6.39-.07.81.06,1.63-.01,2.44-1.18.28-2.38.05-3.57-.14-2.42-.4-4.27-1.29-6.42-1.88-3.23-.89-6.26-1.33-9.45-2.7-1.11-.47-3.97-1.98-3.53-3.43.07-.22,1.75-1.73,2.05-1.8,1.11-.29,3.51,1.26,4.22.95.25-.11.29-.49.58-.65,1.3-.72,2.05-1.03,3.3-1.85,1.45-.95,3.6-.04,5.02-.46.11-.03,1.93-1.21,2-1.3.23-.29.47-1.3.82-1.84,1.12-1.71,2.46-2.25,3.23-4.44,1.54-4.37,3.46-10.96,3.69-15.5.12-2.33-.65-5.03,1.03-6.83-2.09-1.43-3.76-3.36-4.91-5.61-.15-.09-.31-.07-.47-.04-.77.14-4.73,3.3-6.08,3.95-6.81,3.27-14.88,1.42-21.9,4.52-.86.38-1.72,1.66-2.86,2.04-.78.26-3.16.72-3.54-.22-.29-2.08-1.36-4.03-1.86-6.03-.32-1.31-.26-2.91-.64-4.06-.35-1.05-1.33-2.43-1.7-3.41C1.53,95.71,0,91.24,0,90.08c0-1.55.83-2.77,2.48-2.82,1.18-.04,1.75,2.16,2.32,2.92.3.4.75.53.95.82.41.57,1.57,2.72,1.92,2.93.4.24.78-.1,1.07,0,.43.15,3.32,3.33,3.56,3.88.37.84.33,1.98,1.13,2.72.73.68,3.89.5,4.88.21,3.96-1.19,11.3-4.03,14.9-5.98,1.85-1,3.55-3.68,5.35-4.46.58-.25,1.38-.28,1.97-.58.54-.28.98-.99,1.59-1.18,2.2-.66,3.75.31,5.75.53.35.04.68-.17.98-.14,2.03.22,5.08.75,7.05.39.63-.12,1.12-.81,1.67-1.1.9-.47,1.74-.66,2.58-1.05.44-.2,2.37-1.58,2.68-1.26l.11.64,2.77-1.71c.14-.73.71-1.73.87-2.33.1-.39.09-.39-.23-.65-1.86,1.29-3.42,1.93-5.72,1.47l-.25-.18c.11-1.27-1.04-2.26-1.17-3.31-.6-5.03,2.81-12.47,4.2-17.55.37-1.36.6-4.62,1.62-5.52.36-.32,1.1-.5,1.53-.92,1.17-1.13.8-4.07,1.4-5.65L60.93.11l1.92-.11ZM69.86,64.16c.48-1.59.12-2.68-1.69-2.75l.42,2.77,1.26-.02ZM67.32,70.47c.23-.82,0-4.37,0-5.54,0-.17-.52-.43-.74-.32l-.29.35-.89,6.68c.38.38,1.83-.86,1.92-1.17Z"/>
  <g>
    <g>
      <path class="cls-2" d="M125.77,116.36l-15.33-45.69h9.36l13.74,41.37,13.74-41.37h9.42l-15.33,45.69c-1.13,3.34-3.14,6.69-7.82,6.69s-6.69-3.34-7.77-6.69Z"/>
      <path class="cls-2" d="M162.76,96.19c0-16.67,9.52-25.52,26.29-25.52v9.26c-12.91,0-17.03,6.07-17.03,18.27v23.93h-9.26v-25.93Z"/>
      <path class="cls-2" d="M192.45,96.4c0-14.2,10.55-27.27,27.32-27.27s27.37,13.07,27.37,27.27-10.6,27.27-27.37,27.27-27.32-13.07-27.32-27.27ZM237.47,96.4c0-9.42-6.69-18.37-17.7-18.37s-17.7,8.95-17.7,18.37,6.74,18.37,17.7,18.37,17.7-8.95,17.7-18.37Z"/>
      <path class="cls-2" d="M311.61,96.35c0,14.72-10.75,27.32-26.5,27.32-8.39,0-15.28-3.96-18.93-9.06v28.09h-9.26v-46.36c0-14.05,10.03-27.22,27.32-27.22,16.26,0,27.37,12.04,27.37,27.22ZM266.54,96.35c0,9.57,6.74,18.42,17.7,18.42s17.7-8.34,17.7-18.42-7-18.32-17.7-18.32-17.7,8.85-17.7,18.32Z"/>
      <path class="cls-2" d="M319.08,96.3c0-15.23,10.65-27.17,26.6-27.17s25.83,12.09,25.83,26.19c0,1.8,0,2.98-.1,3.91h-42.86c1.23,9.98,8.8,15.85,18.32,15.85,8.7,0,12.76-3.81,16.57-7.82l6.53,5.81c-5.04,5.87-12.35,10.6-23.26,10.6-15.9,0-27.63-10.7-27.63-27.37ZM329.01,91.05h32.11c-1.29-7.31-6.64-13.33-15.44-13.33s-14.87,5.51-16.67,13.33Z"/>
    </g>
    <g>
      <path class="cls-2" d="M384.48,80.57h-.49s-.03,0-.05,0c-.14-.01-.27-.02-.41-.03-.6-.06-1.18-.22-1.74-.46-1.01-.43-1.85-1.09-2.52-1.96-.74-.98-1.16-2.08-1.26-3.3,0-.08-.01-.15-.02-.23,0-.17,0-.34,0-.51,0-.02,0-.04,0-.06.03-.27.04-.53.09-.8.2-1.09.65-2.07,1.37-2.91,1.15-1.34,2.61-2.08,4.36-2.21.83-.06,1.65.05,2.44.33,1.54.54,2.7,1.54,3.48,2.97.61,1.14.83,2.35.69,3.63-.06.55-.19,1.08-.4,1.6-.6,1.48-1.62,2.58-3.04,3.29-.68.34-1.4.54-2.16.62-.12.01-.24.02-.36.03ZM379.27,74.33c0,2.74,2.22,4.97,4.97,4.98,2.74,0,4.98-2.22,4.98-4.97,0-2.75-2.22-4.97-4.97-4.98-2.75,0-4.98,2.22-4.98,4.97Z"/>
      <path class="cls-2" d="M381.71,71.31h3.25c.35,0,.66.07.93.22.27.15.47.35.62.6.15.25.22.54.22.85,0,.76-.32,1.26-.96,1.51v.02c.26.07.45.21.58.4.13.19.21.39.25.6.04.21.06.45.07.74.01.29.04.53.07.7.04.17.09.31.16.41h-1.33c-.05-.11-.08-.25-.1-.41-.02-.16-.05-.37-.07-.64-.02-.32-.06-.56-.12-.75-.06-.18-.16-.32-.3-.42-.14-.1-.35-.14-.62-.14h-1.34v2.36h-1.33v-6.04ZM384.5,74.04c.29,0,.52-.07.67-.2.15-.14.23-.36.23-.66s-.08-.51-.23-.64c-.16-.13-.38-.2-.68-.2h-1.45v1.7h1.46Z"/>
    </g>
  </g>
</svg>