<?xml version="1.0" encoding="UTF-8"?>
<svg id="Capa_2" data-name="Capa 2" xmlns="http://www.w3.org/2000/svg" viewBox="0 0 174.21 274.62">
  <defs>
    <style>
      .cls-1 {
        fill: #f0590e;
      }
    </style>
  </defs>
  <path class="cls-1" d="M107.93,0l11.04,79.03c1.88-.13,1.7,1.13,2.68,2.26l.55-1.83h1.09c.29.27.51,5.64.36,6.4-.19,1.02-1.67,1.77-1.71,3.23l2.24,18.95c.63.94,2.51-.27,3.38-.28,2-.03,1.97,3.21,2.51,3.2,2.32-.83,4.09-3.23,6.87-2.57.33.08.11,1.01,1.15.74.74-1.39,3.57-3.66,3.49-5.29-.04-.83-1-1.91-1.28-2.78-1.39-4.23-.69-5.16-.93-8.95-.07-1.15-1.16-2.2-1.11-4.05.04-1.3.91-2.53.76-3.63-.25-1.83-2.67-1.83-1.36-4.69.43-.94,1.73-1.9,2.24-2.88.75-1.44,2.04-5.94,3.04-6.94.46-.46,2.67-1.67,3.38-2,9.39-4.34,18.76,1.66,19.76,11.73.15,1.49-.03,6.22-.35,7.61-.1.42-1.18.42-1.41,1.23-.2.68.07,1.44-.07,2.07-.04.19-1.37,2.65-1.61,3.21-1.19,2.89-2.59,5.59-2.78,8.75,2.41-.07,4.94-.01,7.16,1.08.61.9-.84,1.86-.57,2.73.16.53,1.05.44,1.47.84,3.44,3.25,6.71,13.19,6.2,17.87-.17,1.58-.85,5.77-1.18,7.25-.36,1.6-2.46,4.2-2.76,6.02-.35,2.11.36,3.13-1.03,5.2-1.03,1.53-2.35,1.35-1.97,3.85.13.89.82,1.47.75,2.59-.22,3.48-4.04,5.38-5.89,7.69-1.39,1.74-2.33,4.47-4.03,6.22-.59.61-2.31,1.45-2.58,1.91-.63,1.05.13,2.07-.37,2.8-1.64,2.43-7.25,6.52-9.73,8.79-1.38,1.26-2.56,3.11-4.18,4.42-2.2,1.77-10.16,7.47-12.48,8.02-2.1.49-8.74.38-11.05.2-3.68-.29-5.84-.94-8.46-3.57l-.73.69-11.93,87.47-2.89.04,12.04-89.67c-1.48-2.36-9.33,5.16-10.42,6.49l-2.35-.31c-.14,2.99.7,5.92.32,8.93-1.01,8.18-11.02,22.55-15.34,29.98-.89,1.52-.59,2.03-1.26,3.57-.99,2.27-1.8,1.5-1.66,4.96.18,4.6-.71,6.67-1.08,10.97-.12,1.38.1,2.8-.03,4.19-2.02.49-4.09.09-6.13-.24-4.16-.69-7.33-2.22-11.03-3.24-5.55-1.52-10.76-2.28-16.23-4.63-1.9-.82-6.82-3.4-6.06-5.9.12-.38,3.01-2.97,3.52-3.1,1.91-.5,6.02,2.17,7.24,1.63.42-.19.51-.84.99-1.11,2.24-1.23,3.51-1.76,5.67-3.17,2.49-1.62,6.19-.07,8.62-.8.2-.06,3.31-2.07,3.44-2.23.39-.51.81-2.23,1.42-3.16,1.93-2.94,4.22-3.86,5.55-7.63,2.64-7.5,5.95-18.82,6.34-26.61.2-3.99-1.12-8.64,1.78-11.73-3.59-2.46-6.46-5.77-8.44-9.64-.25-.16-.54-.11-.82-.06-1.32.24-8.13,5.67-10.45,6.79-11.69,5.61-25.56,2.44-37.6,7.77-1.47.65-2.95,2.85-4.92,3.5-1.33.44-5.43,1.24-6.08-.38-.5-3.56-2.34-6.92-3.19-10.35-.55-2.25-.44-5.01-1.09-6.96-.6-1.81-2.29-4.17-2.93-5.86C2.62,164.37,0,156.69,0,154.71c0-2.67,1.43-4.75,4.27-4.85,2.03-.07,3.01,3.71,3.98,5.01.51.69,1.28.92,1.63,1.4.7.98,2.69,4.67,3.29,5.04.68.41,1.35-.18,1.85,0,.73.26,5.7,5.72,6.12,6.66.64,1.44.57,3.4,1.94,4.68,1.26,1.18,6.68.87,8.38.35,6.8-2.04,19.4-6.93,25.59-10.28,3.18-1.72,6.09-6.32,9.18-7.65.99-.43,2.38-.48,3.39-1,.92-.48,1.68-1.7,2.74-2.02,3.78-1.13,6.45.52,9.88.91.6.07,1.16-.29,1.69-.23,3.49.38,8.73,1.3,12.1.67,1.08-.2,1.93-1.39,2.87-1.88,1.54-.81,2.98-1.14,4.42-1.8.76-.35,4.06-2.72,4.61-2.16l.18,1.1,4.75-2.93c.24-1.25,1.23-2.97,1.49-4,.17-.66.15-.68-.4-1.12-3.19,2.22-5.88,3.31-9.82,2.52l-.43-.3c.2-2.18-1.79-3.88-2.01-5.68-1.03-8.64,4.83-21.41,7.22-30.14.64-2.34,1.03-7.94,2.78-9.48.62-.54,1.88-.86,2.63-1.58,2.01-1.95,1.38-6.98,2.4-9.7L104.63.19l3.3-.19ZM119.98,110.19c.82-2.72.21-4.61-2.9-4.73l.73,4.76,2.17-.03ZM115.61,121.02c.4-1.4,0-7.51,0-9.52,0-.29-.89-.73-1.28-.54l-.49.61-1.52,11.47c.66.65,3.14-1.48,3.29-2.01Z"/>
  <g>
    <path class="cls-1" d="M130.28,234.39h-.75s-.05,0-.08-.01c-.21-.02-.42-.03-.63-.05-.93-.1-1.82-.33-2.67-.7-1.55-.67-2.85-1.67-3.88-3.01-1.14-1.5-1.79-3.2-1.94-5.08,0-.12-.02-.24-.03-.35,0-.26,0-.52,0-.78,0-.03,0-.06.01-.09.05-.41.07-.82.14-1.22.3-1.68,1-3.18,2.11-4.48,1.76-2.06,4.01-3.19,6.71-3.39,1.28-.1,2.54.07,3.75.5,2.37.84,4.16,2.36,5.35,4.57.94,1.75,1.28,3.62,1.06,5.59-.09.85-.29,1.67-.61,2.45-.93,2.27-2.48,3.96-4.67,5.07-1.04.53-2.15.84-3.32.95-.19.02-.37.03-.56.05ZM122.26,224.79c0,4.22,3.42,7.65,7.64,7.65,4.22,0,7.66-3.42,7.66-7.65,0-4.22-3.42-7.65-7.64-7.65-4.22,0-7.66,3.42-7.66,7.65Z"/>
    <path class="cls-1" d="M126.02,220.15h5.01c.54,0,1.01.11,1.42.34.41.23.73.53.96.92.23.39.34.82.34,1.3,0,1.16-.49,1.94-1.47,2.33v.03c.4.11.7.32.89.61.2.29.32.6.38.92.06.32.09.7.11,1.14.02.45.05.81.11,1.07.06.26.14.47.25.63h-2.04c-.07-.17-.12-.38-.16-.63-.03-.25-.07-.57-.1-.98-.03-.49-.1-.87-.19-1.15-.09-.28-.25-.5-.46-.64-.22-.15-.53-.22-.95-.22h-2.05v3.63h-2.04v-9.28ZM130.31,224.35c.45,0,.8-.1,1.03-.31.24-.21.36-.55.36-1.01s-.12-.78-.36-.98c-.24-.2-.59-.31-1.05-.31h-2.24v2.61h2.25Z"/>
  </g>
</svg>