<?xml version="1.0" encoding="UTF-8"?>
<svg id="Capa_2" data-name="Capa 2" xmlns="http://www.w3.org/2000/svg" viewBox="0 0 376.52 72.36">
  <defs>
    <style>
      .cls-1 {
        fill: #f0590e;
      }

      .cls-2 {
        fill: #001821;
      }
    </style>
  </defs>
  <g>
    <g>
      <path class="cls-2" d="M14.87,46.82L0,2.51h9.08l13.32,40.12L35.73,2.51h9.13l-14.87,44.31c-1.1,3.24-3.04,6.49-7.58,6.49s-6.49-3.24-7.53-6.49Z"/>
      <path class="cls-2" d="M50.75,27.26c0-16.17,9.23-24.75,25.5-24.75v8.98c-12.52,0-16.52,5.89-16.52,17.71v23.2h-8.98v-25.15Z"/>
      <path class="cls-2" d="M79.54,27.46c0-13.77,10.23-26.44,26.5-26.44s26.54,12.67,26.54,26.44-10.28,26.45-26.54,26.45-26.5-12.67-26.5-26.45ZM123.2,27.46c0-9.13-6.49-17.81-17.16-17.81s-17.16,8.68-17.16,17.81,6.54,17.81,17.16,17.81,17.16-8.68,17.16-17.81Z"/>
      <path class="cls-2" d="M195.1,27.41c0,14.27-10.43,26.5-25.7,26.5-8.13,0-14.82-3.84-18.36-8.78v27.24h-8.98V27.41c0-13.62,9.73-26.4,26.5-26.4,15.77,0,26.54,11.68,26.54,26.4ZM151.39,27.41c0,9.28,6.54,17.86,17.16,17.86s17.16-8.08,17.16-17.86-6.79-17.76-17.16-17.76-17.16,8.58-17.16,17.76Z"/>
      <path class="cls-2" d="M202.34,27.36c0-14.77,10.33-26.35,25.8-26.35s25.05,11.73,25.05,25.4c0,1.75,0,2.89-.1,3.79h-41.56c1.2,9.68,8.53,15.37,17.76,15.37,8.43,0,12.37-3.69,16.07-7.58l6.34,5.64c-4.89,5.69-11.98,10.28-22.55,10.28-15.42,0-26.79-10.38-26.79-26.54ZM211.97,22.27h31.14c-1.25-7.09-6.44-12.92-14.97-12.92s-14.42,5.34-16.17,12.92Z"/>
    </g>
    <g>
      <path class="cls-2" d="M265.77,12.11h-.47s-.03,0-.05,0c-.13-.01-.27-.02-.4-.03-.58-.06-1.15-.21-1.68-.44-.98-.42-1.8-1.05-2.44-1.9-.72-.95-1.13-2.02-1.22-3.2,0-.07-.01-.15-.02-.22,0-.16,0-.33,0-.49,0-.02,0-.04,0-.06.03-.26.04-.52.09-.77.19-1.06.63-2.01,1.33-2.83,1.11-1.3,2.53-2.01,4.23-2.14.81-.06,1.6.05,2.37.32,1.49.53,2.62,1.49,3.37,2.88.59,1.1.8,2.28.67,3.52-.06.53-.18,1.05-.39,1.55-.58,1.43-1.57,2.5-2.95,3.2-.66.33-1.36.53-2.09.6-.12.01-.23.02-.35.03ZM260.71,6.05c0,2.66,2.15,4.82,4.82,4.83,2.66,0,4.83-2.16,4.83-4.82,0-2.66-2.15-4.82-4.82-4.83-2.66,0-4.83,2.16-4.83,4.82Z"/>
      <path class="cls-2" d="M263.08,3.13h3.16c.34,0,.64.07.9.21.26.14.46.34.6.58.14.25.21.52.21.82,0,.73-.31,1.22-.93,1.47v.02c.25.07.44.2.56.39.12.19.2.38.24.58.04.2.06.44.07.72.01.28.03.51.07.68.04.17.09.3.16.4h-1.29c-.04-.11-.08-.24-.1-.4-.02-.16-.04-.36-.07-.62-.02-.31-.06-.55-.12-.73-.06-.18-.15-.31-.29-.41-.14-.09-.34-.14-.6-.14h-1.3v2.29h-1.29V3.13ZM265.79,5.78c.28,0,.5-.07.65-.2.15-.13.23-.34.23-.64s-.08-.49-.23-.62c-.15-.13-.37-.19-.66-.19h-1.41v1.65h1.42Z"/>
    </g>
  </g>
  <g>
    <path class="cls-1" d="M290.68,10.4c0-3.99,2.28-6.11,6.29-6.11v2.22c-3.09,0-4.08,1.45-4.08,4.37v5.73h-2.22v-6.21Z"/>
    <path class="cls-1" d="M298.11,10.45c0-3.4,2.52-6.53,6.54-6.53s6.55,3.13,6.55,6.53-2.54,6.53-6.55,6.53-6.54-3.13-6.54-6.53ZM308.88,10.45c0-2.25-1.6-4.4-4.24-4.4s-4.24,2.14-4.24,4.4,1.61,4.4,4.24,4.4,4.24-2.14,4.24-4.4Z"/>
    <path class="cls-1" d="M326.95,10.44c0,3.52-2.57,6.54-6.34,6.54-2.01,0-3.66-.95-4.53-2.17v6.72h-2.22v-11.1c0-3.36,2.4-6.51,6.54-6.51,3.89,0,6.55,2.88,6.55,6.51ZM316.16,10.44c0,2.29,1.61,4.41,4.24,4.41s4.24-2,4.24-4.41-1.67-4.38-4.24-4.38-4.24,2.12-4.24,4.38Z"/>
    <path class="cls-1" d="M329.06,10.43c0-3.65,2.55-6.5,6.37-6.5s6.18,2.89,6.18,6.27c0,.43,0,.71-.02.94h-10.26c.3,2.39,2.11,3.79,4.38,3.79,2.08,0,3.05-.91,3.97-1.87l1.56,1.39c-1.21,1.4-2.96,2.54-5.57,2.54-3.8,0-6.61-2.56-6.61-6.55ZM331.43,9.17h7.68c-.31-1.75-1.59-3.19-3.69-3.19s-3.56,1.32-3.99,3.19Z"/>
    <path class="cls-1" d="M303.11,30.22v6.17h-2.22v-1.83c-.87,1.26-2.52,2.2-4.53,2.2-3.77,0-6.34-3.02-6.34-6.54s2.66-6.51,6.54-6.51c4.15,0,6.55,3.15,6.55,6.51ZM292.32,30.22c0,2.41,1.74,4.41,4.24,4.41,2.64,0,4.24-2.12,4.24-4.41s-1.6-4.38-4.24-4.38-4.24,2.04-4.24,4.38Z"/>
    <path class="cls-1" d="M305.79,30.23c0-3.6,2.49-6.53,6.8-6.53,1.83,0,3.12.62,3.82,1.16v2.51c-.87-.81-2.13-1.54-3.73-1.54-2.72,0-4.58,1.79-4.58,4.4s1.86,4.4,4.58,4.4c1.6,0,2.86-.73,3.73-1.54v2.51c-.7.54-1.98,1.16-3.82,1.16-4.31,0-6.8-2.93-6.8-6.53Z"/>
    <path class="cls-1" d="M318.4,30.23c0-3.6,2.49-6.53,6.8-6.53,1.83,0,3.12.62,3.82,1.16v2.51c-.87-.81-2.13-1.54-3.73-1.54-2.72,0-4.58,1.79-4.58,4.4s1.86,4.4,4.58,4.4c1.6,0,2.86-.73,3.73-1.54v2.51c-.7.54-1.98,1.16-3.82,1.16-4.31,0-6.8-2.93-6.8-6.53Z"/>
    <path class="cls-1" d="M331.01,30.2c0-3.65,2.55-6.5,6.37-6.5s6.18,2.89,6.18,6.27c0,.43,0,.71-.02.94h-10.26c.3,2.39,2.11,3.79,4.38,3.79,2.08,0,3.05-.91,3.97-1.87l1.56,1.39c-1.21,1.4-2.96,2.54-5.57,2.54-3.8,0-6.61-2.56-6.61-6.55ZM333.39,28.95h7.68c-.31-1.75-1.59-3.19-3.69-3.19s-3.56,1.32-3.99,3.19Z"/>
    <path class="cls-1" d="M345.72,34.43h3.46c1.48,0,2.04-.58,2.04-1.34,0-.59-.3-.98-1.67-1.77l-1.12-.64c-1.56-.86-2.7-1.9-2.7-3.48,0-1.92,1.44-3.12,3.89-3.12h3.26v1.96h-3.35c-.94,0-1.5.42-1.5,1.08s.48,1.07,1.54,1.67l1.34.78c1.88,1.07,2.61,1.99,2.61,3.44,0,2.4-1.98,3.39-4.12,3.39h-3.68v-1.96Z"/>
    <path class="cls-1" d="M355.63,34.43h3.46c1.48,0,2.04-.58,2.04-1.34,0-.59-.3-.98-1.67-1.77l-1.12-.64c-1.56-.86-2.7-1.9-2.7-3.48,0-1.92,1.44-3.12,3.89-3.12h3.26v1.96h-3.35c-.94,0-1.5.42-1.5,1.08s.48,1.07,1.54,1.67l1.34.78c1.88,1.07,2.61,1.99,2.61,3.44,0,2.4-1.98,3.39-4.12,3.39h-3.68v-1.96Z"/>
    <path class="cls-1" d="M290.13,54.21h3.46c1.48,0,2.04-.58,2.04-1.34,0-.59-.3-.98-1.67-1.77l-1.12-.64c-1.56-.86-2.7-1.9-2.7-3.48,0-1.92,1.44-3.12,3.89-3.12h3.26v1.96h-3.35c-.94,0-1.5.42-1.5,1.08s.48,1.07,1.54,1.67l1.34.78c1.88,1.07,2.61,1.99,2.61,3.44,0,2.4-1.98,3.39-4.12,3.39h-3.68v-1.96Z"/>
    <path class="cls-1" d="M299.94,49.98c0-3.65,2.55-6.5,6.37-6.5s6.18,2.89,6.18,6.27c0,.43,0,.71-.02.94h-10.26c.3,2.39,2.11,3.79,4.38,3.79,2.08,0,3.05-.91,3.97-1.87l1.56,1.39c-1.21,1.4-2.96,2.54-5.57,2.54-3.8,0-6.61-2.56-6.61-6.55ZM302.32,48.73h7.68c-.31-1.75-1.59-3.19-3.69-3.19s-3.56,1.32-3.99,3.19Z"/>
    <path class="cls-1" d="M315.2,49.96c0-3.99,2.28-6.11,6.29-6.11v2.22c-3.09,0-4.08,1.45-4.08,4.37v5.73h-2.22v-6.21Z"/>
    <path class="cls-1" d="M326.3,54.78l-3.67-10.94h2.24l3.29,9.9,3.29-9.9h2.25l-3.67,10.94c-.27.8-.75,1.6-1.87,1.6s-1.6-.8-1.86-1.6Z"/>
    <path class="cls-1" d="M335.8,40.66c0-.85.64-1.49,1.49-1.49s1.49.64,1.49,1.49-.64,1.49-1.49,1.49-1.49-.64-1.49-1.49ZM336.18,43.85h2.22v12.31h-2.22v-12.31Z"/>
    <path class="cls-1" d="M341.39,50.01c0-3.6,2.49-6.53,6.8-6.53,1.83,0,3.12.62,3.82,1.16v2.51c-.87-.81-2.13-1.54-3.73-1.54-2.72,0-4.58,1.79-4.58,4.4s1.86,4.4,4.58,4.4c1.6,0,2.86-.73,3.73-1.54v2.51c-.7.54-1.98,1.16-3.82,1.16-4.31,0-6.8-2.93-6.8-6.53Z"/>
    <path class="cls-1" d="M354,49.98c0-3.65,2.55-6.5,6.37-6.5s6.18,2.89,6.18,6.27c0,.43,0,.71-.02.94h-10.26c.3,2.39,2.11,3.79,4.38,3.79,2.08,0,3.05-.91,3.97-1.87l1.56,1.39c-1.21,1.4-2.96,2.54-5.57,2.54-3.8,0-6.61-2.56-6.61-6.55ZM356.38,48.73h7.68c-.31-1.75-1.59-3.19-3.69-3.19s-3.56,1.32-3.99,3.19Z"/>
    <path class="cls-1" d="M368.71,54.21h3.46c1.48,0,2.04-.58,2.04-1.34,0-.59-.3-.98-1.67-1.77l-1.12-.64c-1.56-.86-2.7-1.9-2.7-3.48,0-1.92,1.44-3.12,3.89-3.12h3.26v1.96h-3.35c-.94,0-1.5.42-1.5,1.08s.48,1.07,1.54,1.67l1.34.78c1.88,1.07,2.61,1.99,2.61,3.44,0,2.4-1.98,3.39-4.12,3.39h-3.68v-1.96Z"/>
  </g>
</svg>