<?xml version="1.0" standalone="no"?>
<!DOCTYPE svg PUBLIC "-//W3C//DTD SVG 20010904//EN"
 "http://www.w3.org/TR/2001/REC-SVG-20010904/DTD/svg10.dtd">
<svg version="1.0" xmlns="http://www.w3.org/2000/svg"
 width="840.000000pt" height="433.000000pt" viewBox="0 0 840.000000 433.000000"
 preserveAspectRatio="xMidYMid meet">

<g transform="translate(0.000000,433.000000) scale(0.100000,-0.100000)"
fill="#000000" stroke="none">
<path d="M4925 3484 c-507 -38 -718 -61 -1045 -115 -1181 -193 -2307 -580
-3092 -1061 -54 -33 -98 -61 -98 -62 0 -1 91 43 203 99 1107 552 2415 931
3617 1049 964 95 1858 31 2429 -174 154 -54 155 -55 56 -6 -230 115 -601 204
-1040 252 -142 15 -892 28 -1030 18z"/>
<path d="M4070 2550 l0 -510 250 0 250 0 0 510 0 510 -250 0 -250 0 0 -510z"/>
<path d="M4742 2553 l3 -508 248 -3 247 -2 0 510 0 510 -250 0 -250 0 2 -507z"/>
<path d="M5400 2550 l0 -510 250 0 250 0 0 510 0 510 -250 0 -250 0 0 -510z"/>
<path d="M4745 1880 c-270 -10 -973 -31 -2005 -60 -691 -20 -1458 -42 -2039
-60 -231 -7 -306 -12 -312 -22 -21 -34 10 -37 546 -53 292 -8 757 -22 1035
-30 278 -8 665 -19 860 -25 486 -14 939 -27 1555 -46 736 -22 1010 -23 1240
-1 238 22 289 26 1060 87 713 56 735 58 735 70 0 12 -42 16 -400 40 -529 34
-1054 69 -1285 86 -269 19 -669 25 -990 14z"/>
<path d="M1448 1356 c-21 -11 -38 -27 -38 -34 0 -15 -199 -406 -288 -565 -58
-105 -84 -127 -152 -127 -16 0 -30 -4 -30 -10 0 -6 60 -10 160 -10 100 0 160
4 160 10 0 6 -12 10 -27 10 -44 0 -73 11 -73 27 0 9 21 65 47 125 35 83 52
112 70 119 28 10 265 11 302 0 19 -5 34 -30 72 -116 27 -61 48 -116 49 -123 0
-14 -40 -32 -75 -32 -13 0 -27 -4 -30 -10 -4 -7 60 -10 184 -10 183 0 245 10
143 24 -35 4 -56 14 -75 34 -25 26 -98 176 -267 550 -40 89 -78 162 -84 161
-6 -1 -28 -11 -48 -23z m61 -251 c33 -74 61 -138 61 -143 0 -18 -31 -22 -150
-22 -79 0 -121 4 -126 11 -9 15 126 289 142 289 6 0 39 -61 73 -135z"/>
<path d="M2445 1370 c-286 -51 -455 -207 -443 -408 9 -161 137 -285 353 -343
109 -30 362 -33 478 -6 86 20 94 28 128 117 17 46 18 51 3 57 -10 4 -20 -1
-27 -13 -5 -10 -29 -38 -53 -60 -141 -138 -478 -117 -636 40 -114 113 -130
313 -37 441 37 50 124 110 192 131 29 9 99 18 157 21 175 9 282 -30 335 -122
37 -62 59 -61 51 3 -18 130 -10 117 -79 131 -77 16 -355 23 -422 11z"/>
<path d="M3515 1374 c-199 -42 -327 -122 -393 -247 -24 -46 -27 -63 -27 -147
0 -87 3 -100 30 -148 55 -101 170 -180 315 -219 47 -13 102 -17 200 -17 118 1
145 4 216 27 201 66 317 199 318 362 2 187 -134 329 -361 379 -66 15 -246 20
-298 10z m230 -38 c79 -21 128 -50 183 -110 71 -78 95 -145 96 -266 1 -85 -2
-101 -27 -152 -88 -179 -345 -242 -556 -137 -120 60 -191 174 -199 321 -9 174
72 292 234 341 62 19 203 21 269 3z"/>
<path d="M4462 1363 c-91 -3 -122 -7 -119 -16 2 -6 20 -15 40 -18 70 -11 67 3
67 -344 0 -354 4 -339 -83 -351 -26 -4 -47 -10 -47 -14 0 -13 529 -22 608 -11
298 44 462 180 463 383 1 133 -67 232 -205 297 -155 74 -264 85 -724 74z m491
-48 c127 -33 210 -93 257 -187 26 -53 30 -72 30 -139 0 -237 -177 -372 -468
-357 -100 5 -155 26 -177 69 -20 38 -22 603 -2 616 41 25 258 25 360 -2z"/>
<path d="M5550 1353 c0 -8 14 -13 35 -13 25 0 44 -8 60 -25 l25 -24 0 -295 c0
-162 -4 -306 -9 -319 -11 -27 -56 -47 -107 -47 -19 0 -34 -4 -34 -10 0 -6 136
-10 389 -10 l388 0 32 70 c17 39 31 75 31 80 0 23 -37 7 -60 -26 -13 -20 -42
-48 -63 -62 -36 -24 -50 -27 -168 -30 -156 -5 -211 2 -246 32 -27 23 -27 24
-28 162 l0 139 133 3 c77 1 140 -2 151 -8 11 -5 25 -26 32 -45 7 -19 17 -35
21 -35 4 0 11 -1 15 -2 4 -2 8 50 9 115 0 99 -2 117 -14 115 -9 -2 -20 -18
-27 -37 -18 -56 -34 -61 -181 -61 -111 0 -133 2 -138 16 -9 24 -7 267 3 282 6
10 45 13 174 10 185 -3 201 -9 239 -78 26 -50 43 -45 41 10 -1 25 -4 59 -7 75
l-6 30 -345 0 c-269 0 -345 -3 -345 -12z"/>
<path d="M6460 1353 c0 -8 14 -13 35 -13 25 0 44 -8 60 -25 l25 -24 0 -303 c0
-350 1 -343 -80 -354 -106 -14 -41 -24 155 -24 130 0 205 4 205 10 0 6 -17 10
-39 10 -50 0 -98 17 -106 38 -11 26 -19 225 -11 266 l7 36 137 0 c154 0 172
-6 197 -67 27 -64 39 -36 39 87 0 129 -12 150 -43 77 -10 -24 -27 -47 -36 -51
-9 -3 -79 -6 -155 -6 -163 0 -150 -14 -150 160 0 175 -14 160 159 160 172 0
202 -10 239 -77 13 -24 28 -43 33 -43 5 0 9 35 9 78 l0 77 -340 0 c-265 0
-340 -3 -340 -12z"/>
</g>
</svg>
