<?xml version="1.0" encoding="utf-8"?>
<!-- Generator: Adobe Illustrator 23.1.1, SVG Export Plug-In . SVG Version: 6.00 Build 0)  -->
<svg version="1.1" id="Capa_1" xmlns="http://www.w3.org/2000/svg" xmlns:xlink="http://www.w3.org/1999/xlink" x="0px" y="0px"
	 viewBox="0 0 261 42" style="enable-background:new 0 0 261 42;" xml:space="preserve">
<style type="text/css">
	.st0{fill:#757693;}
</style>
<g>
	<path class="st0" d="M83.5,12.4l-1.3,2.8c-2.3-1.6-5.1-2.2-7.2-2.2c-3.4,0-5.5,1.3-5.5,3.5c0,6.7,14.7,3.2,14.6,12.7
		c0,4.4-3.8,7.1-9.4,7.1c-3.8,0-7.5-1.6-10-4l1.3-2.7c2.4,2.3,5.7,3.7,8.7,3.7c3.8,0,6.1-1.5,6.1-4c0-6.9-14.6-3.2-14.6-12.5
		c0-4.1,3.6-6.7,9-6.7C78.3,10,81.4,11,83.5,12.4"/>
	<polygon class="st0" points="98.8,13 98.8,21.5 112,21.5 112,24.4 98.8,24.4 98.8,33.3 114,33.3 114,36.2 95.8,36.2 95.8,10.1 
		113.5,10.1 113.5,13 	"/>
	<path class="st0" d="M137.3,27.9c-0.6,0-1.2,0.1-1.8,0.1h-6.9v8.2h-3V10.1h9.9c6.5,0,10.3,3.2,10.3,8.8c0,4.3-2.1,7.2-5.8,8.5
		l6.1,8.9h-3.4L137.3,27.9z M135.6,25.1c4.7,0,7.4-2.1,7.4-6.1c0-3.9-2.7-6-7.4-6h-6.9v12.1H135.6z"/>
	<rect x="158.2" y="10.1" class="st0" width="3" height="26.1"/>
	<polygon class="st0" points="193.3,36.2 177.6,15.2 177.6,36.2 174.7,36.2 174.7,10.1 177.8,10.1 193.4,31.1 193.4,10.1 
		196.3,10.1 196.3,36.2 	"/>
	<path class="st0" d="M225.9,12.4l-1.3,2.8c-2.3-1.6-5.1-2.2-7.2-2.2c-3.4,0-5.5,1.3-5.5,3.5c0,6.7,14.7,3.2,14.6,12.7
		c0,4.4-3.8,7.1-9.4,7.1c-3.8,0-7.5-1.6-10-4l1.3-2.7c2.4,2.3,5.7,3.7,8.7,3.7c3.8,0,6.1-1.5,6.1-4c0-6.9-14.6-3.2-14.6-12.5
		c0-4.1,3.6-6.7,9-6.7C220.6,10,223.7,11,225.9,12.4"/>
	<path class="st0" d="M240.2,29.6l-2.9,6.6h-3.2l11.7-26.1h3.1l11.7,26.1h-3.2l-2.9-6.6H240.2z M247.3,13.5l-5.8,13.2h11.7
		L247.3,13.5z"/>
	<path class="st0" d="M22.1,0.4L0.5,16.1l8.3,25.4h26.7l8.3-25.4L22.1,0.4z M15.9,32.2L20,20.5c-0.9-0.6-1.5-1.7-1.5-2.9
		c0-2,1.6-3.5,3.5-3.5s3.5,1.6,3.5,3.5c0,1.2-0.6,2.2-1.5,2.9l4.2,11.7H15.9z"/>
</g>
</svg>
