<?xml version="1.0" encoding="UTF-8"?>
<svg id="Capa_2" xmlns="http://www.w3.org/2000/svg" version="1.1" viewBox="0 0 501.1 158.3">
  <!-- Generator: Adobe Illustrator 29.3.0, SVG Export Plug-In . SVG Version: 2.1.0 Build 146)  -->
  <defs>
    <style>
      .st0 {
        fill: #102b42;
      }

      .st1 {
        fill: #cfb47c;
      }

      .st2 {
        fill: #fff;
      }
    </style>
  </defs>
  <g id="Capa_1-2">
    <g>
      <path class="st0" d="M78.9,2.3C36.6,2.3,2.4,36.5,2.4,78.8s34.2,76.5,76.5,76.5,76.5-34.2,76.5-76.5S121.1,2.3,78.9,2.3ZM78.9,151.6c-40.2,0-72.8-32.6-72.8-72.8S38.7,6,78.9,6s72.8,32.6,72.8,72.8-32.6,72.8-72.8,72.8h0Z"/>
      <circle class="st1" cx="78.9" cy="78.8" r="72.8"/>
      <g>
        <g>
          <g>
            <polygon class="st0" points="61.9 110.7 65.1 110.7 63.5 115.7 61.9 110.7"/>
            <polygon class="st0" points="65.1 120.6 61.9 120.6 63.5 115.7 65.1 120.6"/>
            <polygon class="st0" points="58.5 117.3 58.5 114.1 63.5 115.7 58.5 117.3"/>
            <polygon class="st0" points="68.5 114.1 68.5 117.3 63.5 115.7 68.5 114.1"/>
          </g>
          <g>
            <polygon class="st0" points="76.3 110.5 79.5 110.5 77.9 115.5 76.3 110.5"/>
            <polygon class="st0" points="79.5 120.5 76.3 120.5 77.9 115.5 79.5 120.5"/>
            <polygon class="st0" points="72.9 117.2 72.9 113.9 77.9 115.6 72.9 117.2"/>
            <polygon class="st0" points="82.9 113.9 82.9 117.2 77.9 115.6 82.9 113.9"/>
          </g>
          <g>
            <polygon class="st0" points="90.6 110.7 93.8 110.7 92.2 115.7 90.6 110.7"/>
            <polygon class="st0" points="93.8 120.7 90.6 120.7 92.2 115.7 93.8 120.7"/>
            <polygon class="st0" points="87.2 117.4 87.2 114.2 92.2 115.8 87.2 117.4"/>
            <polygon class="st0" points="97.2 114.2 97.2 117.4 92.2 115.8 97.2 114.2"/>
          </g>
        </g>
        <path class="st0" d="M81.9,90.7c0,0,0,.1,0,.1,0,1.2.1,2.5.2,3.7,0,1,.2,1.9.5,2.7.3,1,.8,1.9,1.5,2.7.7.8,1.4,1.4,2.3,1.9l9.2,6.1c0,.2,0,.3,0,.3h-4.4c-.4,0-.5-.2-.5-.2-.7-.4-2.8-2.1-4.3-3,0,0-5.8-4.2-6,3.1h-4.1s0,0,0,0c0,0-.3-7.5-6.6-3.2l-4.6,2.9-.8.5h-4.7s-.1-.5.3-.8c0,0,6.7-3.4,8.1-4.5.3-.3,2.5-2.1,2.8-2.4.6-.6,1.1-1.2,1.6-1.9.2-.3.4-.7.6-1.1s.4-.8.5-1.2c.4-1.1.7-2.2.7-3.6,0-.3,0-.5,0-.8,0-.3,0-.7,0-.9,0-.2,0-.4,0-.7h0c0-1.1,0-2.2,0-3.3,0-.6,0-1.1,0-1.5,0-1.1-1.4-2-1.4-2l-2.1-1.4s-2.4,3-5.4,4.3c0,.1.2.2.4.3.2,0,.4.1.6.2.4.2.7.6.8,1.1,0,.1,0,.2,0,.3-.1.4-.6.6-.9.5,0,0,0,0,0,0-.8-.4-.7-1-.8-1.5,0-.2-.1-.5-.3-.7-.7.3-1.4.4-2.2.4-.4,0-.7,0-1,0,0,0,0,.2,0,.3.1.4.7.3,1.3.7.7.4.5.8,1.1.9.4.1.6,0,1,.2.1,0,.3.2.5.4.2.2.2.5.2.7,0,.3-.2.6-.4.8-.2.1-.3.2-.5.2-.4,0-.8-.1-1.1-.5s-.3-.8-.1-1.2c0,0,0,0,0-.2,0-.1,0-.3-.1-.4-.4-.6-1-1.2-1.8-1.3,0,.2,0,.4,0,.7,0,0,0,.2,0,.2,0,.1.2.2.4.2.3.2.7.4.7.8,0,.3,0,.7-.2,1,0,.1-.2.2-.3.3,0,0-.3,0-.4,0-.3,0-.4,0-.7,0,0,0-.4-.2-.6-.5-.2-.4,0-.9,0-.9.2-.4.5-.5.6-1,0,0,0,0,0,0,0-.5,0-.9-.2-1.4,0,0,0-.1,0-.2-.3,0-.6,0-.8,0-.1.2-.4.4-.6.6-.3.2-.6.4-.9.5.1.4,0,.9-.4,1.2s-.9.2-1.2,0c-.2-.1-.3-.3-.4-.5-.1-.2-.2-.4-.1-.6,0-.4.4-.6.8-.7.4,0,.7,0,1.1.2,0,0,.2,0,.2,0,0,0,.2,0,.2,0,.3,0,.7-.2.9-.4,0,0,.1-.2.2-.2-.3,0-.6,0-.7-.1,0,0-.2,0-.3,0-.2,0-.3,0-.5.1-.3.1-.7.2-1.1,0-.2-.1-.4-.3-.5-.6,0-.3,0-.5.2-.7.2-.2.5-.2.8-.2.2,0,.4.2.6.4.1,0,.2.2.3.3,0,0,0,0,.1,0,.1,0,.3,0,.4.1,0,0,0,0,.2,0,.2,0,.6,0,.9.1,0-.2-.1-.3-.1-.4,0,0,0-.1-.1-.2-.1,0-.3,0-.4,0-.4,0-.9,0-1.2-.4s-.4-.8-.2-1.2c.2-.4.6-.6,1-.5.2,0,.4.2.5.4.2.3.3.6.3.9,0,.1,0,.3,0,.4.1.3.3.5.6.8,0,0,0,0,0,0,.7,0,1.4,0,2.2-.1,0-.2-.2-.4-.2-.5,0,0,0-.1-.1-.2-.1,0-.3,0-.4,0-.4,0-.9,0-1.2-.3-.3-.3-.4-.8-.2-1.2.2-.4.6-.6,1-.5.2,0,.4.2.5.4.2.3.3.6.3.9,0,.1,0,.3,0,.4l.7.9c0,0,.1,0,.2,0,0,0,.2,0,.2,0,.7-.2,1.4-.6,1.9-1.1,0,0,0-.2,0-.2,0,0-.1,0-.2,0-.3,0-.5,0-.7-.2-.1,0-.3-.2-.4-.3-.4-.4-.7-.7-1-1.1-.2.1-.3.1-.5.1s-.3-.1-.5-.2c-.2,0-.4-.2-.5-.4-.2-.2-.2-.5-.2-.7,0-.3.2-.6.4-.8.2-.1.3-.2.5-.2.4,0,.8.1,1.1.5s.3.8.1,1.2c0,0,0,0,0,.2,0,.1,0,.3.1.4.4.6,1,1.2,1.8,1.3,0-.2,0-.4,0-.7,0,0,0-.2,0-.2,0-.1-.2-.2-.4-.2-.3-.2-.7-.4-.7-.8,0-.3,0-.7.2-1,.4-.4.9-.3,1.1-.3.1,0,.5,0,.8.4.1.2.2.4.2.5,0,.7-.6,1.3-.7,1.4,0,0,0,0,0,0,0,0,0,0,0,0,0,.4,0,.7.1,1.1,1.5-1.5,2.3-3.6,2.3-3.6,0,0-1.3-.8-6.4-1.9-5.1-1.1-7.9-5.6-7.9-5.6-.3-.6-.8-1.2-1.4-1.9-1.4-1.5-3-2.3-4.1-2.7,0,.3,0,.5,0,.7,0,0,.2,1,1.3,1.9,0,0,0,0,.1,0,0,0,0,0,.1,0,.3-.1.7-.1,1,0,.5.2.9.9.8,1.5,0,.2-.2.4-.4.5-.3.2-.8.2-1.1,0-.6-.3-.6-1-.6-1.6,0,0,0,0,0-.1,0,0,0,0,0,0-.2-.1-.5-.4-.7-.4s-.4.3-.4.5c-.1.3-.2.6,0,.8,0,.1.2.2.2.3.3.3.6.8.6,1.3,0,.3,0,.7-.3.9-.2.1-.4.2-.6.2-.2,0-.7,0-1.1-.4-.4-.4-.5-1-.3-1.4.2-.4.7-.4.9-.9,0-.2,0-.3,0-.4-.6.2-1.3.4-1.9.6-.2,0-.4.1-.5.3-.4.4,0,1-.1,1.5-.1.6-.7.9-1.3.8-.6-.1-1-.5-1.3-1.1-.2-.4-.2-.8,0-1.2.2-.5.7-.7,1.1-.8.3,0,.7,0,1,.1,0,0,0,0,.1,0s0,0,.1,0c.3-.1.7-.2,1-.3.6-.2,1.2-.3,1.7-.5.4-.1.6-.7.6-1.2,0-.3-.1-.4-.3-.9,0-.3-.2-.6-.2-.8-.4,0-.7,0-1.1,0-.3,0-.5,0-.8,0,0,0-.3.4-.4.6,0,0,0,.2,0,.2,0,0,0,.1,0,.2,0,.2,0,.3,0,.5,0,.4-.3.7-.4,1-.1.2-.3.4-.6.5-.5.2-1,0-1.3-.5-.3-.5,0-1.1.2-1.4.3-.3.6-.4.6-.4.5-.2,1,.1,1.2,0,0,0,0,0,0-.2,0-.1,0-.2.1-.3-.4,0-1.1,0-1.9.4-.5.2-.9.5-1.2.8,0,0,0,0-.1.1,0,0,0,0,0,.1s0,.1,0,.2c.1.3,0,.6-.2.9-.3.6-1,.9-1.7.6-.3-.1-.6-.4-.7-.8-.1-.4.1-.8.4-1,.2-.2.5-.3.8-.4.2,0,.4,0,.6-.1.3,0,.5-.3.8-.4,0-1-.3-1.3-.6-1.5-.2-.1-.4,0-.6-.3-.1-.1-.4-.3-.5-.7-.1-.4,0-.8.2-1.1.3-.4.9-.5,1.3-.3.5.2.6.7.6.8,0,0,.1.5-.1.9-.1.2-.3.2-.4.4,0,.2,0,.4.2.9.6-.4.9-1.2,1.1-1.9,0-.1,0-.3,0-.4,0,0,0,0-.1-.1-.3-.3-.5-.7-.4-1.1.1-.4.4-.7.8-.9.2,0,.4-.1.6,0,.3,0,.6.3.7.6.1.2.2.5.2.7,0,.2-.2.4-.3.5-.3.4-.6.3-.9.6,0,0,0,0-.5,1.2,0,0-.3.8-.7,1,0,0,0,0,0,0-.1.1-.2.2-.2.2,0,0,0,.1,0,.2h0c0,0,.2,0,.3-.1,0,0,0,0,0,0,0,0,0,0,0,0,0,0,0,0,0,0,1.1-.5,2.5-.9,4-1,0,0,.2-.3,0-.6,0-.2-.2-.3-.3-.4-.1,0-.2-.1-.3-.2-.3-.2-.5-.5-.6-.8-.1-.4,0-.9.4-1.2s.9-.2,1.2.1c.2.2.2.4.2.6,0,.3,0,.6,0,.9,0,.2-.1.3-.2.4,0,0,0,0,0,.2s0,.1,0,.2c0,.2,0,.5,0,.6h.2c1.3,0,2.8.5,4.2,1.2,0,0,0-1.4-.8-2.4-.4-.2-.9-.4-1.2-.7-.4-.4-.7-.9-.7-1.4,0-.4,0-.7,0-1.1,0-.1,0-.2,0-.3,0-.3.3-.4.4-.6.2-.3,0-.7.2-1,.1-.3.5-.5.7-.8.2-.2.4-.4.6-.3.1,0,.2.2.3.3.2.1.5,0,.7.2.2.2.2.4.4.6.2.2.4.3.5.5,0,.2,0,.3,0,.5,0,.2.3.3.3.5,0,.2,0,.4,0,.6,0,.3.2.5.2.8,0,.3-.3.6-.4.9,0,.1,0,.2,0,.3,0,.2-.2.4-.3.6h0c0,1,0,3.2,1.6,5.6,2,3.3,7.9,5.3,11.6,5.4.8-1.8.7-5.3-1.1-8.2-.1,0-.3.1-.4.2-.4.3-.5.7-.6,1.1-.1.4,0,.9,0,1.3,0,0,0,.1,0,.1,0,0,0,0,.1,0,.3.1.6.4.8.8.2.5,0,1.5-.5,1.8-.2.1-.5.1-.7,0-.4-.1-.8-.4-.9-.8-.2-.7.4-1.3.8-1.8,0,0,0,0,0-.1h0c0-.3,0-.8-.2-.9-.2-.2-.5,0-.7,0-.3.1-.6.3-.7.6,0,.1,0,.3,0,.4,0,.5-.2,1.1-.5,1.5-.2.3-.6.5-1,.5-.3,0-.5-.1-.7-.3-.4-.3-.6-.7-.6-1.2,0-.5.2-.9.6-1.2.5-.3,1.1-.2,1.7,0,.1-.3,0-.2.2-.5-.6-.3-1.2-.7-1.8-1-.2,0-.4-.2-.6-.2-.6,0-.8.8-1.3,1.1-.5.4-1.3.1-1.7-.4-.4-.5-.4-1.2-.2-1.8.1-.4.4-.8.8-1,.5-.2,1,0,1.5.3.3.2.6.5.7.9,0,0,0,.1,0,.1,0,0,0,0,.1,0,.4.2.7.3,1.1.5.6.3,1.2.7,1.8.9.4.2.9,0,1.2-.3.2-.2.5-.9.7-1.2.1-.1.4-.3.5-.4-.2-.3-.5-.7-.8-.9-.6-.1-1,0-1.3.1-.1,0-.2.1-.4.3-.3.2-.6.4-1,.5-.3,0-.5,0-.8-.1-.4-.2-.6-.8-.4-1.3.2-.5.7-.7,1.2-.7.5,0,.9.3,1.2.7,0,0,.2.3.3.3,0,0,.2,0,.4,0,.1,0,.3,0,.3-.1-2.1-2-4.8-2.7-5.2-2.8-.2,0-.3,0-.3,0-.2,0-.3.2-.5.2,0,0-.3.2-.7.3-.5.2-1.2,0-1.6-.5-.1-.1-.3-.4-.4-.7,0-.4,0-.9.3-1.2.3-.4.9-.4,1.3-.3.3.1.7.3.9.6.1.1.3.4.7.6,0,0,0,0,0,0,.2,0,.9.3,1.9.8,0-.4,0-.8-.1-1.2,0,0,0,0,0,0,0,0,0,0,0,0-.5-.2-.9-.7-1-1.2,0-.1,0-.2,0-.4.1-.5.6-.9,1.2-.8,0,0,.4,0,.6.2s.4.6.4.9c0,.4-.3.7-.6.9-.1,0-.2.2-.3.3,0,0,0,.2,0,.2,0,.2,0,.4.2.6.7-.3,1.2-.9,1.5-1.7,0-.1,0-.3,0-.4,0,0,0,0-.1-.1-.3-.3-.3-.8-.1-1.2s.6-.6,1-.7c.2,0,.4,0,.6,0,.3.1.5.4.6.7,0,.2.1.5,0,.8-.1.2-.3.4-.4.5-.4.3-.8.3-1,.3-.2.4-.5.8-.7,1.2,0,.2-.3.4-.4.5-.2.2-.3.3-.6.4,0,0-.2,0-.2.1,0,.1,0,.2,0,.4.7.4,1.5.9,2.4,1.5,0,0,.2-.1.4-.3,0,0,.1-.2.2-.3,0-.2,0-.4,0-.5,0-.1-.3-.9,0-1.4.2-.4.7-.7,1.2-.7.5,0,.9.5.9,1s-.1.5-.3.7c-.2.3-.5.5-.8.7-.3.1-.3,0-.4.2-.2.1-.5.4-.6,1,.6.4,1.2.9,1.8,1.6.3.3.5.6.8.9,0,0,0-.2.1-.3,0,0,0-.2,0-.3,0-.2-.2-.3-.2-.4-.3-.3-.5-.8-.5-1.3,0-.5.4-.9.9-1,.5-.1,1,.2,1.1.6,0,.2,0,.5,0,.7-.1.3-.3.6-.6.9-.2.2-.2.2-.3.3-.2.2-.3.5-.3,1.1.5.7,1,1.7,1.4,2.8.4,1.1.7,2,.8,2.9.5,0,.9-.5,1-1,0-.7,0-1.3,0-2s0-.8,0-1.2c0,0,0,0,0-.1,0,0,0,0-.1-.1-.3-.3-.4-.7-.4-1,0-.5,0-1.1.5-1.5.4-.3.9-.3,1.3-.3.6,0,1.3.4,1.6,1s.1,1.4-.5,1.7c-.5.3-1.3.1-1.6.6-.1.2-.1.4-.1.6,0,.7,0,1.4,0,2.1.3,0,.2,0,.5,0,.2-.6.4-1.2.9-1.5.4-.2.9-.2,1.3,0,.4.2.7.6.8,1.1,0,.2,0,.5,0,.7-.2.4-.5.6-.9.6-.5.1-1.1,0-1.6-.2-.1,0-.2-.1-.4-.2-.3,0-.6.1-.9.3-.1.1-.4.4-.4.6,0,.2.5.5.7.6,0,0,0,0,0,0,0,0,0,0,.1,0,.6-.2,1.4-.5,1.9,0,.3.3.4.8.3,1.2,0,.2-.2.5-.4.6-.5.3-1.4,0-1.8-.4-.2-.3-.4-.7-.3-1,0,0,0-.1,0-.1,0,0,0,0-.1-.1-.4-.3-.7-.5-1.2-.6h0c.2.9.3,1.7.3,2.3,2.8.6,5.2,1.8,5.2,1.8,0,0,1-12.2.8-15.2,0,0-2.1-2.6-3.5-3.6-1.4-1-3.7-2.7-3.7-2.7,0,0-3.6.3-6.7-1.4,0,0-.1,0-.2.1,0,0-.1,0-.2.1,0,0,0,.1-.1.2,0,0,0,0,0,.2,0,.1,0,.3-.2.4,0,0-.2.5-.6.6-.5.2-1.2,0-1.4-.5-.1-.4.2-.8.5-1,.3-.2.6-.2.9-.1.1,0,.2,0,.3.1,0,0,.3.1.3.1,0,0,0,0,.1-.2,0,0,.1-.1.2-.2-.8-.4-1.5-1-2.1-1.7,0,0-.2.2-.3.2,0,0-.1,0-.2.1,0,0-.1.1-.1.2,0,0,0,.1,0,.2,0,.2-.1.3-.2.5-.2.3-.4.5-.7.7-.2.2-.4.3-.7.3-.5,0-.9-.4-1-.8,0-.5.2-1,.6-1.2.3-.2.7-.2,1.1-.1.1,0,.2,0,.3.1,0,0,.4.2.4.1,0,0,0-.1.2-.2.1-.1.3-.3.4-.5-1.3-1.5-2-2.7-2.4-3.7,0,0,0,0-.1,0,0,0,0,.1,0,.2,0,.2,0,.5,0,.8,0,.2,0,.2-.1.4-.2.4-.5.8-.7,1.2.1.1.2.3.2.4,0,.2,0,.4,0,.5,0,0-.2.7-.8.9,0,0-.5.1-.9-.1-.1-.1-.2-.3-.3-.4-.1-.4-.1-.8,0-1.1s.6-.5,1-.5c0,0,.1,0,.2,0,.1,0,.2-.1.3-.2.4-.6.7-1.3.6-1.9-.2,0-.4,0-.6.2,0,0-.1,0-.2.1,0,.1,0,.2-.1.4,0,.3-.2.7-.5.9-.3.2-.6.2-.9,0-.3-.1-.4-.3-.5-.4-.2-.3-.1-.6-.1-.7,0-.2,0-.5.2-.6,0,0,.2-.2.3-.2.5-.2,1,0,1.4.2,0,0,0,0,0,0,0,0,0,0,0,0,.4-.1.8-.3,1.1-.5-.2-.5-.3-.9-.3-1.2,0-.4,0-.7-.2-1,0-.2-.2-.4-.3-.6-.1-.3-.3-.7-.3-1,0-.4.2-.9.6-1.1.4-.2.8-.1,1.2,0,.3.1.5.3.6.5.4.6.1,1.3,0,1.4,0,0-.1.3-.3.6-.2.2-.4.3-.5.4-.2.3-.2.7-.1,1.2.3,1.3,1,2.9,1.3,3.3,0-.1.2-.3.2-.4,0,0,0-.2.1-.2,0,0-.2-.2-.3-.3,0,0-.2-.2-.2-.3-.2-.3-.3-.6-.3-1,0-.4.4-.9.8-1,.4-.1.9.1,1.1.5,0,.2,0,.5,0,.7,0,.3-.2.6-.4.9,0,.1-.2.2-.3.3,0,0-.1,0-.1.1,0,0-.1.2-.1.2-.2.4-.2.4-.2.5,0,0,0,.3.4.7.2.2.5.5.9.7.4-.3.7-.5.9-.7.7-.7.8-1.1.8-1.2,0-.5-.3-.7-.7-1.5-.2-.3-.3-.6-.4-.9,0,0,0,0,0,0,0,0,0,0-.1,0-.3,0-.5-.3-.7-.6-.2-.4-.4-.8-.2-1.2.2-.3.5-.6.8-.7.5-.2,1.1-.1,1.5.2.4.3.6,1,.3,1.4-.3.4-.9.6-.9,1,0,.2,0,.3.1.5.2.5.5,1,.8,1.5.2,0,.2,0,.4-.1,0-.5-.2-1,.1-1.4.2-.3.6-.5.9-.5.4,0,.7.2,1,.5.1.2.2.3.2.5,0,.3-.2.6-.4.8-.3.3-.8.4-1.2.4-.1,0-.2,0-.3,0-.3,0-.4.3-.5.6,0,.1-.2.4,0,.6s.5.2.7.2c0,0,0,0,0,0,0,0,0,0,0,0,.4-.4.8-.8,1.4-.7.3.1.6.4.7.8,0,.2,0,.4,0,.6-.3.4-1,.6-1.4.4-.3-.1-.5-.3-.6-.6,0,0,0,0,0-.1s0,0-.1,0c-1,0-1.5.1-1.5.1-.4.2-.7.6-.7.8.3.2.5.3.8.5,2.7,1.4,4.4,1.3,5.3,1,0,0-2.2-3.3-1-6.2,0,0,.4-.8.5,0s-.2,2.1,0,2.8.8,2.5,2.5,3.7c1.8,1.2,2.2,1.9,5,3.2,0,0,0,0,0,0,.2-.5.5-2-.5-3.8,0,0,0-.1-.2-.3-.3-.5-.4-.6-.5-.7-.1,0-.2,0-.3.1,0,0-.2.1-.3.3h0s0,0,0,0c0,.1,0,.2-.1.3-.1.2-.3.3-.5.5-.1.1-.3.2-.4.2-.3,0-.6-.2-.6-.5,0-.3.1-.6.4-.8.2-.1.5-.1.7,0,0,0,.1,0,.2,0,.1,0,.2,0,.2,0,0,0,.1,0,.2-.1,0,0,.1-.1.2-.2-.4-.3-.8-.6-1.1-.7,0,0-.1,0-.2-.1-.4-.2-.9-.3-1.2-.4,0,0,0,0,0,0-.2.1-.4.2-.6.2-.2,0-.3,0-.4-.1-.2,0-.3-.2-.4-.4s-.1-.4,0-.6c0,0,.1-.1.2-.2.3-.1.6-.1.8,0,.1,0,.4.3.5.5.2,0,.3.1.5.2,0,0,0,0,0,0,0-.2,0-.4,0-.6-.1-.6-.2-.9-.3-1-.3-.4-.6-.2-.8-.5-.2-.3-.2-.7,0-1,.2-.3.6-.3.7-.3,0,0,.4,0,.7.2.2.2.3.5.3.7,0,.4-.3.4-.4.8,0,.3,0,.3,0,.9,0,.2,0,.6,0,.9,0,0,0,0,.1,0,.2.1.5.2.8.4,0,0,.1-.2.2-.4,0-.2.2-.5.1-.8,0-.5-.3-.5-.3-.8s.2-.6.4-.7c.2-.1.4,0,.5,0,0,0,.4.1.6.5,0,.2,0,.5,0,.7-.2.3-.5.2-.7.5-.2.2,0,.3-.2.8,0,0-.1.3-.3.5,0,0,0,0,0,0,.2.1.4.2.6.4,0,0,.1.1.2.1t0,0c0,0,0,0,.1,0,0,0,0,0,.2-.2,0,0,0,0,0-.1,0,0,0,0,0-.1,0-.1,0-.2.1-.3.1-.2.3-.4.4-.5.1-.1.3-.2.4-.2.3,0,.6.2.7.5,0,.3-.1.6-.4.8-.2.1-.5.2-.7.1,0,0-.2,0-.2,0,0,0-.2,0-.2,0,0,0-.1.1-.2.2,0,0,0,.1-.1.2.4.3.7.6,1,1,0,0,0,0,.1.1.1.1.2.3.3.4,1,1.5,1.2,3.3,1.2,4.5.2.1.4.2.5.4,0,0,.6-11.7.6-12.4s.2-2.1,0-2.5c-.2-.3-.7-1.5-2-2.6,0,.1-.1.2-.2.3-.3.7,0,1.5.4,2.1,0,0,0,0,0,0s0,0,.1,0c.3,0,.6,0,.8.3.4.3.6,1.1.3,1.5-.1.2-.3.3-.5.3-.3,0-.7,0-1-.2-.4-.4-.2-1.1,0-1.6,0,0,0,0,0-.1,0,0,0,0,0,0-.1-.1-.3-.5-.5-.5-.2,0-.4.2-.5.3-.2.2-.3.5-.3.7,0,.1,0,.2.1.3.2.4.3.9.2,1.3,0,.3-.2.6-.5.7-.2,0-.4,0-.6,0-.4,0-.7-.3-.9-.6-.2-.3-.2-.7,0-1.1.2-.4.7-.6,1.2-.7,0-.2,0-.2,0-.4-.6,0-1.1,0-1.7,0-.2,0-.3,0-.5,0-.4.2-.3.9-.5,1.3-.2.5-.9.6-1.4.4s-.7-.7-.8-1.3c0-.4,0-.8.2-1,.3-.4.7-.4,1.2-.4.3,0,.6.1.8.4,0,0,0,0,.1,0,0,0,0,0,.1,0,.3,0,.7,0,1,0,.5,0,1.1,0,1.6,0,.4,0,.7-.5.8-.9,0-.3,0-.4,0-1,0-.3,0-.6,0-.7-.3-.2-.6-.4-1-.6-.4-.2-.9-.4-1.2-.5-.1.2-.4.5-.5.6,0,0-.6.4-.8.5,0,0,.3.9,0,1.3-.2.2-.5.3-.8.3-.3,0-.6-.2-.8-.3,0,0-.2-.2-.2-.3,0-.1,0-.2,0-.4,0-.4.3-.7.6-.9.3-.2.7-.2,1,0,0,0,.8-.6.8-.6,0,0,0,0,0,0,.1-.1.2-.2.3-.4-1.4-.4-2.7-.4-3.4-.3-.2.3-.4.6-.7.7-.2,0-.5,0-.7,0-.3,0-.6-.1-.9-.3-.3-.2-.4-.5-.4-.9,0-.2.1-.3.2-.4.3-.4.8-.5,1.3-.4.3,0,1.1.4,1.3.7.2,0,.5,0,.9,0-.1-.2-.2-.5-.2-.6,0,0,0-.6,0-.8,0,0,0,0,0,0-.2,0-.7-.3-.8-.7,0-.2,0-.5.2-.7.2-.2.4-.3.7-.3,0,0,.2,0,.3,0,.1,0,.2,0,.3.2.2.2.3.5.3.9,0,.3-.3.6-.6.7,0,0,0,.8,0,.9h0c0,.2,0,.4.2.6.6,0,1.3.1,2.2.3,0-.4,0-.7-.2-1,0,0,0,0,0,0,0,0,0,0,0,0-.4-.1-.8-.5-.9-1,0-.1,0-.2,0-.4,0-.2.2-.4.4-.5s.4-.2.6-.3c0,0,.1,0,.2,0,.1,0,.2,0,.3.2.2.2.4.4.4.7,0,.3-.2.6-.4.8,0,0-.2.2-.2.3,0,0,0,.1,0,.2,0,.2,0,.4.2.5.6-.3.9-.9,1.1-1.5,0-.1,0-.2,0-.3,0,0,0,0,0-.1-.2-.3-.3-.7-.2-1,.1-.3.4-.6.8-.6.2,0,.3,0,.5,0,.3,0,.5.3.6.6,0,.2.1.4,0,.7,0,.2-.2.3-.3.4-.1.1-.2.2-.4.3-.1,0-.3,0-.5,0-.2.4-.3.8-.5,1.2,0,.1-.2.3-.3.4-.2.2-.3.2-.5.3s-.1,0-.2.1c0,0,0,.2,0,.3.4.1.8.3,1.3.5.6.3,1.2.6,1.8,1,.3-.2.7-.8.3-2.7h0s0,0,0-.1c0-.4,0-.8.3-1.1.2-.2.4-.3.5-.6,0,0,0-.2.1-.2.1-.1.3,0,.5-.1.2,0,.4-.3.6-.4.2-.1.5,0,.8,0,.2,0,.4,0,.5.1,0,0,0,.2,0,.3,0,.2.2.3.3.5,0,.2-.1.3-.1.5,0,.2.1.3,0,.5,0,.1-.2.2-.2.3,0,.1,0,.3,0,.4,0,.1-.2.2-.3.3-.1.2-.1.4-.3.5-.1.1-.3.1-.5.2,0,0,0,0-.1,0,0,0-.1,0-.2.1,0,0-.2,0-.2.1-.5.3-1.1.8-1.5,1.6,1.1.8,2.2,1.5,2.9,1.6.8,0,1.3-.2,1.9-.9.3-.4.6-.8,1-1.1,0,0-.2-.2-.3-.3-.1.2-.3.3-.6.3-.2,0-.4,0-.6-.1-.2,0-.3-.2-.4-.3-.2-.3-.2-.7,0-1.1.2-.3.6-.5.9-.6.3,0,.6,0,.7.3.2.3.1.7.2,1.1,0,.2.3.4.3.5,1-1,2-1.7,3.1-2.3,0,0,0-.2,0-.2,0,0-.1,0-.2-.1-.2,0-.3-.2-.6-.3-.2-.2-.4-.4-.4-.4-.6-.7-.5-.9-.7-1-.3-.1-.4,0-.7-.2,0,0-.2-.2-.4-.4-.1-.2,0-.4,0-.7,0-.3.2-.5.4-.6.1,0,.4-.1.5-.1.4,0,.7.2.9.5.2.3.2.7,0,1,0,0,0,0,0,.1,0,.1,0,.2,0,.3.3.6.7,1.1,1.3,1.3,0-.2.1-.4.1-.5s0-.1,0-.2c0-.1-.2-.2-.3-.2-.3-.2-.5-.4-.5-.8,0-.3.1-.6.3-.8,0-.1.2-.1.3-.2,0,0,.2,0,.3,0,.2,0,.4,0,.6.2.2.1.4.3.4.5,0,.1,0,.2,0,.4,0,.5-.4.9-.8,1.1,0,0,0,0,0,0,0,0,0,0,0,0,0,.3,0,.7,0,1,.6-.2,1.3-.4,2.1-.5.1-.2.1-.4.1-.6h0c0-.4,0-.8-.2-1-.2-.3-.4-.2-.5-.4-.2-.3-.1-.7.2-1,.2-.2.4-.2.5-.2,0,0,.5,0,.7.3.2.2.2.5.1.8-.1.3-.4.3-.5.6-.1.3,0,.4,0,.9,0,.3,0,.6-.1.7.3,0,.7,0,1-.1.6-.3.6-.7,1.1-.9.4-.1,1-.2,1.3.3.3.4.3.9,0,1.3-.3.4-.7.4-.8.5-.6,0-.8-.3-1.6-.5-.6-.1-1,0-1.5,0-.8.1-1.4.4-1.8.7,0,.1.2.2.3.3,0,0,0,0,0,0,0,0,.9.5.9.5.3-.2.7-.3,1-.1.3.1.6.4.7.8,0,.1,0,.2,0,.4,0,.1-.1.2-.2.3-.2.2-.5.4-.7.5-.3,0-.6,0-.8-.2-.3-.3-.2-.9,0-1.2,0,.1-.9-.4-1-.5,0,0-.4-.3-.5-.5-.1,0-.3.1-.4.2-.4.2-.7.4-.8.5-.3.2-.5.4-.9.6,0,.1.1.3.2.5.1.6,0,.8.2,1.1.2.4.6.8.9.8.5,0,1.1-.1,1.6-.2.3,0,.7,0,1-.1,0,0,0,0,0,0,0,0,0,0,0,0,.2-.3.5-.4.8-.5.4,0,.9-.1,1.2.2.3.3.4.6.4,1,0,.5-.2,1.1-.6,1.4-.4.3-1.1.2-1.4-.2-.3-.4-.2-1-.7-1.2-.2,0-.3,0-.5,0-.6,0-1.1.1-1.7.2v.4c.5,0,1,.2,1.3.5.2.3.3.7.1,1.1-.1.3-.4.6-.8.7-.2,0-.4.1-.6,0-.3,0-.5-.4-.6-.7-.2-.4-.1-.9,0-1.3,0-.1,0-.2.1-.3,0-.3-.2-.5-.4-.7-.1-.1-.4-.3-.5-.2-.2,0-.3.4-.4.6,0,0,0,0,0,0,0,0,0,0,0,0,.2.5.5,1.1.2,1.6-.2.3-.6.4-.9.4-.2,0-.4-.1-.5-.2-.3-.4-.2-1.2.1-1.5.2-.2.5-.4.8-.4,0,0,0,0,.1,0,0,0,0,0,0,0,.6-1.4.2-2,.2-2,0-.1,0-.3-.3-.5-1,1-1.8,2.3-1.9,3.4,0,0,.1,6.3.2,7.9.1,1.5.5,7.9.5,7.9,0,0,.2-.1.6-.4,0-1.2,0-3.3,1.2-5.1.1-.2.2-.3.3-.4,0,0,0,0,.1-.1.3-.4.6-.7,1-.9,0,0,0,0,0-.1,0,0,0-.2-.2-.2,0,0,0,0-.3,0s-.2,0-.2,0c-.2,0-.5,0-.7-.1-.3-.2-.4-.5-.4-.8s.4-.6.7-.5c.2,0,.3.1.4.2.2.1.3.3.4.5,0,0,0,.2.1.3,0,0,0,0,0,.1s0,0,0,.1,0,0,.1.1c0,0,0,0,.1,0,0,0,0,0,0,0h.2c.2-.3.4-.4.6-.5,0,0,.2,0,.3-.1,0,0,0,0,0,0,0-.2-.2-.3-.2-.4,0,0-.2-.7-.2-.8,0,0-.1,0-.3,0-.2,0-.5,0-.6-.4-.1-.2,0-.5,0-.7,0-.1.1-.3.4-.5.1,0,.3,0,.4,0,.1,0,.2,0,.3,0,.3.2.4.4.4.7,0,.3-.1.6-.4.8,0,0,.1.8.2.8,0,0,0,0,0,0,0,.1,0,.2.1.3.2,0,.4-.2.6-.3,0,0,.1,0,.2,0,.2,0,.5-.2.6-.2.1-.2.4-.5.5-.5.2-.1.6-.2.8,0,0,0,.2.1.2.2.1.2,0,.4,0,.6s-.3.3-.4.4c-.1,0-.3.1-.4.1s-.4-.1-.6-.2c0,0,0,0,0,0-.3,0-.7.2-1.2.4.1,0,.2.2.4.2,0,0,0,0,0,0,0,0,.9.3.9.3.2-.2.4-.4.7-.3s.6.2.7.5c0,0,0,.2,0,.3,0,0,0,.2-.1.2-.1.2-.3.4-.5.5-.2.1-.5.1-.7,0-.3-.2-.4-.7-.2-1,0,0-.7-.2-.8-.2-.2,0-.5-.3-.7-.4-.4.2-.8.4-1.2.8,0,0,.2.2.4.3,0,0,.2,0,.3,0,.1,0,.2,0,.2,0,.2,0,.5,0,.7,0,.3.2.4.5.4.8,0,.3-.3.6-.6.5-.2,0-.3,0-.4-.2-.2-.1-.3-.3-.5-.5,0,0,0,0-.1-.3,0-.1,0-.2-.1-.2,0,0-.1-.1-.2-.2,0,0-.1-.1-.3-.1-.2.2-.4.4-.6.7,0,0,0,.1-.2.3-1.1,2.1-.5,3.8-.4,4.2,1.8-1.2,4.1-2.7,4.8-3.6,1.1-1.5,2.9-2.8,2.7-5.7-.3,0-.6,0-.9,0-.4,0-.8-.3-1-.6-.1-.2-.2-.5-.4-.7,0,0-.1-.1-.2-.2-.1-.2,0-.4,0-.6,0-.3-.2-.5-.2-.7,0-.3.1-.5.2-.8,0-.2.1-.4.3-.5.1,0,.2,0,.3,0,.2,0,.4-.2.6-.1.2,0,.3.2.5.3.2,0,.4,0,.5.1,0,0,.1.2.2.3.1.1.3.1.4.2.1,0,.2.3.3.4.1.2.3.2.4.4.1.2,0,.5,0,.7,0,0,0,.2,0,.2,0,.2,0,.3,0,.5,0,.2-.1.4-.3.6.2,1.2.3,3.4-.9,5.5,0,0,3.5.1,6.5-2-.3-.3-.7-.5-.9-.6,0,0-.7-.3-1.7-.2,0,0,0,0-.1,0,0,0,0,0,0,.1-.1.3-.4.5-.6.6-.4.2-1.2,0-1.4-.4-.1-.2-.1-.4,0-.6,0-.3.3-.7.7-.8.6-.2,1.1.3,1.4.7,0,0,0,0,0,0h0c.2,0,.6,0,.7-.2.1-.1,0-.4,0-.6,0-.2-.3-.5-.5-.6-.1,0-.2,0-.3,0-.4,0-.9-.1-1.2-.4-.2-.2-.4-.5-.4-.8,0-.2.1-.4.2-.5.2-.3.6-.5,1-.5.4,0,.7.2.9.5.2.4.2.9,0,1.4.2,0,.2,0,.4.1.3-.5.5-1,.8-1.5,0-.2.1-.3.1-.5,0-.5-.6-.7-.9-1.1-.3-.4-.1-1.1.3-1.4.4-.3,1-.3,1.5-.1.3.1.7.3.8.7.2.4,0,.8-.2,1.2-.2.3-.4.5-.7.6,0,0,0,0-.1,0,0,0,0,0,0,0-.1.3-.3.6-.4.9-.4.8-.7.9-.7,1.4,0,.5.4.9.6,1.1.5.5,1.1.7,1.4.7,0,0,0,0,.1-.1.3-.3.6-.6.8-.9,0-.1,0-.2,0-.3,0,0,0-.3-.2-.5,0,0,0-.1-.1-.2,0,0,0,0-.1-.1-.1-.1-.2-.2-.3-.3-.2-.3-.3-.6-.4-.9,0-.2,0-.5,0-.7.2-.4.7-.6,1.1-.5s.7.5.8,1c0,.4-.1.7-.3,1,0,0-.2.2-.2.2,0,0-.3.2-.3.3,0,0,0,.1.1.2,0,.1.2.3.2.4.2-.3,1-1.8,1.3-3,.1-.6.1-.9,0-1.2,0-.2-.3-.5-.4-.6-.3-.4-.3-.4-.5-.6-.2-.4-.3-1,0-1.5.2-.3.5-.5.6-.5.4-.2.8-.2,1.2,0,.4.2.6.7.6,1.1,0,.4-.2.7-.3,1,0,.2-.2.4-.3.6-.2.4-.1.6-.3,1,0,0,0,0,0,0,0,.2,0,.5-.2.7,0,.2,0,.3,0,.5.3.3.7.4,1.1.6,0,0,0,0,0,0,0,0,0,0,0,0,.4-.3,1-.4,1.4-.2.1,0,.2.1.3.2.2.2.2.4.2.6s0,.5-.2.7c0,0,0,.1-.1.2,0,.1-.2.2-.4.2-.3,0-.6,0-.9-.1-.3-.2-.4-.5-.4-.9,0-.1,0-.3,0-.4,0,0-.1-.1-.2-.1-.2-.1-.4-.2-.6-.2-.1.7.2,1.4.6,1.9,0,.1.2.2.3.2,0,0,.1,0,.2,0,.4,0,.8.2,1,.5.2.3.2.7,0,1.1,0,.2-.2.3-.3.4-.2.2-.6.2-.9.1-.2,0-.5-.2-.6-.4-.1-.2-.2-.3-.2-.5,0-.2,0-.3,0-.5s.1-.3.2-.4c-.3-.4-.5-.8-.7-1.2,0-.1-.1-.4-.1-.5,0-.2,0-.4,0-.6,0,0,0-.1,0-.2,0,0,0,0-.1,0-.4,1-.9,2.2-1.9,3.3-.1.2-.3.3-.4.5,0,0,0,.3.3.4.2.1.4,0,.5,0,.2,0,.3-.1.3-.1.4,0,.8,0,1.1.1.4.2.7.7.6,1.2s-.5.9-1,.8c-.3,0-.5-.2-.7-.3-.4-.3-.3-.5-.8-1.2,0-.1-.2-.3-.5-.5,0,0-.2-.1-.2-.1-.6.6-1.4,1.2-2.1,1.7,0,0,0,0,0,0,0,0,.1,0,.2.1,0,0,.1,0,.3,0,.2,0,.2,0,.3-.1.3,0,.6,0,.9.1.3.2.6.6.5,1,0,.4-.5.7-.8.7-.5,0-1-.4-1.2-.9,0-.2,0-.5-.3-.7,0,0-.1,0-.2-.1-2.3,1.5-5,2.3-6.7,2,0,0-3.9,2.6-4.9,3.8s-3,3.8-3,3.8c0,0,.4,13.3.7,13.4.3.1,3.2-1.6,6-1.9,0,0,.2,0,.3,0,0-.7,0-1.6.3-2.7,0,0,0,0-.1,0-.4,0-.8.3-1.2.6,0,0,0,0-.1.1,0,0,0,0,0,.1,0,.4-.1.8-.3,1-.4.4-1.3.7-1.8.4-.2-.1-.3-.4-.4-.6-.1-.4,0-.9.3-1.2.6-.5,1.3-.3,1.9,0,0,0,0,0,.1,0,0,0,0,0,0,0,.2-.1.6-.4.7-.6,0-.2-.2-.5-.4-.6-.2-.2-.6-.4-.9-.3-.1,0-.2.1-.4.2-.5.3-1.1.3-1.6.2-.4,0-.8-.3-.9-.6-.1-.2,0-.5,0-.7.1-.4.4-.9.8-1.1.4-.2.9-.2,1.3,0,.5.3.7.9.9,1.5.1,0,.3,0,.4,0,0-.9,0-1.6,0-2.1,0-.3,0-.4-.1-.6-.3-.5-1.1-.4-1.6-.6-.6-.3-.7-1.1-.5-1.7.3-.6.9-.9,1.6-1,.4,0,.9,0,1.3.3.4.4.5.9.5,1.5,0,.4-.2.8-.4,1,0,0,0,0-.1.1,0,0,0,0,0,.1,0,.4,0,.8,0,1.2,0,.7,0,1.4,0,2,0,.5.5,1,1,1,.5-2.1,1.4-4.6,3.3-6.9h0c-.2-.3-.3-.6-.5-.8-.1,0-.3-.1-.4-.1-.3-.1-.6-.3-.9-.6-.2-.2-.3-.4-.3-.7,0-.5.3-.9.8-1s.9.2,1.2.6c.2.4.2.9,0,1.3,0,.1-.1.3,0,.4,0,0,0,.1.1.2,0,0,.2.1.3.2.8-.9,1.5-1.6,2.3-2.2,0-.2.2-.5,0-.6,0,0-.1-.1-.2-.1-.2-.1-.4-.2-.6-.3,0,0-.2-.1-.4-.4-.5-.8-.4-1.2-.8-1.4-.3-.2-.5,0-.9-.2,0,0-.3-.2-.4-.5-.1-.2,0-.5,0-.8.1-.3.3-.6.6-.7.2,0,.4,0,.6,0,0,0,.7.1,1,.7.2.4,0,.9-.1,1.1,0,0,0,.1-.1.2,0,0,0,.2,0,.4.3.7.8,1.4,1.5,1.7,0-.2.1-.4.2-.6,0,0,0-.2,0-.2,0-.1-.2-.2-.3-.3-.3-.2-.5-.6-.6-.9,0-.3.2-.7.4-.9.1-.1.2-.2.4-.2,0,0,.3,0,.4,0,.3,0,.4.2.6.3.2.1.4.3.5.6,0,.1,0,.3,0,.4-.1.5-.5,1-1,1.2,0,0,0,0,0,0,0,0,0,0,0,0-.1.4-.2.9-.1,1.3,1-.7,1.9-1.1,2.8-1.4.1-.3.3-.6.3-.7,0,0,0-.2,0-.3,0-.2-.2-.3-.3-.4-.4-.4-.7-.9-.7-1.5,0-.6.4-1.1,1-1.3.5-.2,1.2.1,1.4.6.1.3.1.6,0,.9-.1.4-.3.8-.6,1.1-.1.1-.3.2-.4.4-.2.3-.2.6-.2,1,.1,0,.3-.1.4-.2.1,0,.2,0,.4-.1.3,0,.3-.1.6-.2,0,0,.2,0,.3-.1.3-.2.4-.4.5-.5.3-.2.6-.5.9-.6.4-.2,1-.1,1.3.3.3.3.4.8.3,1.2,0,.3-.2.6-.4.7-.5.6-1.3.5-1.4.5-.2,0-.7,0-.9-.3,0,0-.1-.2-.3-.3-.2,0-.4,0-.5,0-.9.3-.7,0-1.8.5-.2,0-.4.2-.7.3-.5.2-1.4.7-2.5,1.4.2.1.3.3.4.3,0,0,.1,0,.2.1.2,0,.3,0,.4-.2.4-.3.9-.4,1.4-.2s.8.6.8,1.1c0,.5-.4,1-.8,1-.3,0-.5,0-.7-.2-.3-.2-.6-.4-.8-.8,0-.1-.1-.3-.2-.4-.3-.3-.7-.3-1-.5-.5.4-1,.9-1.4,1.5.2.1.5.3.8.7.5.5.5.8.9,1.1.5.3,1,.2,1.1.2.8,0,.8-.4,1.8-.9.4-.2.7-.4,1.1-.5,0,0,0,0,.1,0,0,0,0,0,0-.1.1-.4.4-.7.7-.9.5-.3,1-.5,1.5-.3.4.2.7.6.8,1,.2.6.2,1.3-.2,1.8s-1.2.7-1.7.4c-.5-.3-.7-1.1-1.3-1.1-.2,0-.4,0-.6.2-.6.3-1.2.6-1.8,1,.1.3,0,.2.2.5.6-.1,1.2-.2,1.7,0,.4.2.6.7.6,1.2,0,.5-.2.9-.6,1.2-.2.2-.4.3-.7.3-.4,0-.7-.2-1-.5-.4-.4-.5-1-.5-1.5,0-.1,0-.3,0-.4,0-.3-.4-.5-.7-.6-.2,0-.6-.2-.7,0-.1.1-.2.7-.2.9,0,0,0,0,0,0,0,0,0,0,0,.1.5.5,1.1,1,.8,1.8-.1.4-.5.7-.9.8-.2,0-.5,0-.7,0-.5-.3-.7-1.2-.5-1.8.1-.4.4-.6.8-.8,0,0,0,0,.1,0,0,0,0,0,0-.1,0-.4.1-.9,0-1.3,0-.3-.2-.8-.6-1.1-.3-.2-.6-.3-.8-.4-.1.2-.2.3-.3.5-2.1,3.3-1.5,7-1,9,2.5-.4,5.3-.9,7.1-2.1,2.7-1.8,4.5-3,5.5-7.3,1.1-4.3.6,1.3.6,1.3,0,0,2.7-1.6,5.6-1.3,0,0,0-.2.1-.3,0,0,0,0,0,0,0,0,0-.2,0-.2,0,0,0-.1,0-.2,0,0,0,0,0-.2,0-.1-.1-.3-.1-.4,0-.3,0-.6,0-.9,0-.2.1-.4.3-.6.3-.3.9-.3,1.2,0,.3.3.4.8.3,1.2-.1.3-.4.6-.7.7,0,0-.2,0-.3.1,0,0-.2.1-.3.3-.2.3,0,.6,0,.7,0,0,0,0,0,0,1.8.4,3.3,1,4.3,1.6,0,0,0-.2,0-.2,0-.3-.5-.4-.8-.9,0,0,0,0-.1-.3-.1-.5-.2-1-.3-1.5-.2,0-.4,0-.5-.2-.1-.1-.2-.3-.3-.4-.1-.2-.2-.4-.2-.6,0-.3,0-.5.2-.7.2-.3.5-.5.8-.5.2,0,.4,0,.6.1.4.2.7.5.7,1,0,.4-.1.9-.5,1.1,0,0,0,0-.1,0,0,0,0,.2,0,.4,0,.8.3,1.5.9,2,.2-.2.3-.4.3-.6,0,0,0-.2,0-.2,0-.1-.1-.3-.2-.4-.2-.3-.4-.7-.2-1,0-.3.4-.5.7-.7.1,0,.3-.1.5,0,0,0,.2,0,.3,0,.2.1.4.3.6.5.2.2.3.4.3.7,0,.1,0,.3-.1.4-.3.5-.8.8-1.3.8,0,0,0,0-.1,0,0,0,0,0,0,0-.2.4-.4.8-.5,1.3.3.1.5.4.8.5.2,0,.4,0,.6.1.3,0,.6.2.8.4.3.2.5.6.4,1,0,.3-.4.6-.7.8-.7.3-1.3,0-1.7-.6-.3-.5-.2-.9-.2-.9,0,0,0-.2,0-.3,0-.3-.4-.4-.5-.4-.5-.3-1.4-.7-2.8-1.4,0,0,0,.3.1.5,0,0,.1.2.2.3.3.2.5,0,.8.1.5,0,.7.5.8.6.2.3.4.9,0,1.4-.3.4-.9.6-1.3.4-.2-.1-.4-.3-.5-.6-.2-.3-.3-.7-.3-1,0-.2,0-.3,0-.5,0-.1,0-.1,0-.2,0-.2,0-.3-.2-.5,0,0,0-.1-.1-.2l-.3-.4c-.1,0-.3,0-.4,0-.4,0-.7,0-1.1-.1,0,.2-.1.5-.3.9-.3.5-.4.5-.5.8,0,.4,0,1,.5,1.2.5.3,1.1.5,1.6.7.3.1.7.3,1,.4,0,0,0,0,.1,0s0,0,.1,0c.3-.1.7-.1,1,0,.5.2.9.4,1,.9.1.4,0,.8-.2,1.2-.3.5-.8.9-1.4.9-.6,0-1.2-.4-1.2-.9,0-.5.3-1.1,0-1.5-.1-.1-.3-.2-.4-.3-.6-.3-1.1-.5-1.7-.7-.1.2,0,.2-.2.4.4.3.8.7.9,1.2,0,.4-.1.8-.4,1.1s-.8.3-1.2.3c-.2,0-.4-.1-.6-.3-.2-.2-.3-.6-.2-1,0-.5.3-.9.7-1.2,0,0,.2-.1.3-.2.2-.2.1-.6,0-.8,0-.2-.2-.5-.4-.5-.2,0-.6.3-.7.3,0,0,0,0,0,0,0,0,0,0,0,.1,0,.6,0,1.3-.7,1.6-.4.2-.8,0-1.1-.2-.2-.1-.3-.3-.4-.5-.1-.5.4-1.2.9-1.4.3-.1.7,0,1,0,0,0,0,0,.1,0s.1,0,.1,0c1.2-.9,1.4-1.8,1.4-1.8,0-.1,0-.4.1-.7-.6,0-1.5.2-2.5.6-1.5.7-2.3,1.6-3.5,3-.8.9-1.7,2.2-2.6,3.8.5-.1,1.1-.3,1.8-.7,0,0,0,0,0,0,0,0,.1,0,.2,0,.5-.2,1.1-.2,1.6,0,.5.2.4.3.9.5.2,0,.4.1.5.3.1.2.1.3.2.5.2.4.5.3.8.7.2.3.2.7.3,1.1,0,.3.2.6,0,.8-.1.1-.3.1-.4.2-.2.1-.3.4-.6.6-.2.1-.5,0-.7,0-.2,0-.4.3-.7.2-.2,0-.3-.1-.4-.2-.2,0-.4,0-.6,0-.2,0-.4-.2-.6-.3-.3,0-.6,0-.8-.2-.2-.1-.3-.4-.4-.6,0,0,0-.1-.1-.2,0,0-.2-.1-.2-.2,0,0-.2-.2-.2-.3-.4-.4-1-.8-1.8-1.2-2.5,1.4-5.5,2.1-9.2,2.9-.6.1-1.3.3-1.9.6.2,1,.9,3.4,3.5,4.9,0-.4,0-.8,0-1.3,0,0,0,0,0,0,0,0,0,0,0,0-.5-.2-.8-.7-.9-1.3,0-.1,0-.3,0-.4,0-.2.3-.4.5-.6.2-.1.4-.2.6-.2,0,0,.3,0,.4,0,.2,0,.3.1.4.3.2.3.4.6.4.9,0,.4-.3.7-.6.9-.1,0-.3.2-.3.3,0,0,0,.2,0,.2,0,.2,0,.4.1.6.7-.2,1.2-.9,1.6-1.5,0-.1.1-.3,0-.4,0,0,0,0,0-.1-.2-.3-.2-.8,0-1.2.2-.4.6-.6,1-.6.2,0,.4,0,.6.1.3.1.5.5.5.8,0,.3,0,.5,0,.8-.1.2-.3.4-.4.4,0,0-.2,0-.2,0-.4,0-.5,0-.7,0-.4,0-.4.6-1,1.4-.1.1-.2.3-.4.4-.2.2-.5.3-.5.3-.2,0-.3,0-.3.2,0,.1,0,.3,0,.4s.2,0,.3.1c.8.3,1.5.5,2.2.6.3-.4.5-.7.5-.9,0-.1,0-.1,0-.5,0-.5,0-.7.2-.9.1-.2.3-.4.4-.5.4-.2.9,0,1.1.3.2.4.2.8,0,1.2-.3.3-.7.5-1.1.5-.1,0-.3,0-.4,0,0,0,0,0-.1.3,0,.2,0,.3,0,.4.8,0,1.5,0,2.2-.2.3-.4.4-.8.5-1,0-.1,0-.1,0-.4,0-.5,0-.7.2-.9.1-.2.3-.4.4-.5.4-.2.9,0,1.1.3.2.4.2.8,0,1.2-.3.3-.7.5-1.1.5,0,0-.3,0-.4,0,0,0,0,.1-.1.2,0,.1,0,.3,0,.4.2,0,.5,0,.9-.2.4-.2.6-.4.7-.5.1-.1.1-.2.3-.3.2-.2.3-.3.5-.4.2-.1.6-.2.8,0,.2.2.3.4.3.7s-.2.5-.4.7c-.3.2-.7.2-1,.2-.2,0-.2,0-.4,0-.4,0-.7.1-1,.3,0,0,0,0,.1.1.3.2.6.2,1,.3,0,0,.2,0,.2,0,0,0,.2,0,.2-.1.3-.2.7-.4,1-.4s.8.2.9.6c0,.2,0,.4,0,.6,0,.2-.2.4-.3.5-.3.3-.8.4-1.2.2-.4-.2-.7-.6-.6-1.1-.3-.1-.7-.2-1-.4-.2,0-.4-.2-.6-.4-.2,0-.5.1-.9.2,0,0,0,0,0,.1-.1.5,0,.9,0,1.4,0,0,0,0,0,0,0,0,0,0,0,0,.5.2.8.7.9,1.3,0,.1,0,.3,0,.4-.2.5-.7.8-1.2.8,0,0-.4,0-.6-.3-.3-.2-.4-.6-.4-.9,0-.4.3-.7.6-.9.1,0,.3-.2.3-.3,0,0,0-.2,0-.2,0-.2,0-.4-.1-.6-.7.2-1.2.9-1.6,1.5s-.1.3,0,.4c0,0,0,0,0,.1.2.3.2.8,0,1.2s-.6.6-1,.6c-.2,0-.4,0-.6-.1-.3-.1-.5-.5-.5-.8,0-.3,0-.5,0-.8.1-.2.3-.3.4-.4.3-.2.5-.2.8-.3.6-.2.4-.6,1.1-1.1.6-.4,1.1-.5,1.1-.8,0-.1,0-.2,0-.3-.9,0-2,.1-3.2,0-.1.2-.2.6-.2.8,0,.5,0,.7,0,1.1,0,0-.2.5-.5.6-.4.1-.8,0-1-.3,0-.1,0-.2,0-.3,0-.5.2-.9.6-1.2.2-.1.4-.2.6-.3.2,0,.3-.2.4-.4-.8-.2-1.5-.4-2.3-.8-2.2-1.2-3.9-3.1-4.7-4.2-2.2,1.3-3.9,3.2-3.9,4.5,0,.6,0,2.7,0,2.7,0,.6,0,1.3.1,2"/>
      </g>
      <path class="st0" d="M78.9,9.4C40.5,9.4,9.5,40.5,9.5,78.8s31.1,69.4,69.4,69.4,69.4-31.1,69.4-69.4S117.2,9.4,78.9,9.4ZM121.6,34.5c1.7,0,3.1,1.4,3.1,3.1s-1.4,3.1-3.1,3.1-3.1-1.4-3.1-3.1,1.4-3.1,3.1-3.1ZM35.8,35.4c1.7,0,3.1,1.4,3.1,3.1s-1.4,3.1-3.1,3.1-3.1-1.4-3.1-3.1,1.4-3.1,3.1-3.1ZM79.9,126.8c-26.5,0-48-21.5-48-48s21.5-48,48-48,48,21.5,48,48-21.5,48-48,48h0Z"/>
      <g>
        <path class="st2" d="M61.3,131.6l.5,1,.4-.2c.2,0,.3-.1.5-.2.2,0,.3-.1.4-.2,0,0,0,0,0,0,0,0,0,.2,0,.4v7.9c0,.3,0,.5,0,.7,0,.1,0,.2,0,.2,0,0-.1,0-.2,0-.2,0-.4,0-.7,0h-.4v1.1h3.7v-12.4h-.8l-3.2,1.6h0Z"/>
        <path class="st2" d="M75.4,131.8c-.3-.5-.8-.9-1.3-1.3-.5-.3-1.1-.5-1.8-.5s-1.2.1-1.6.4c-.5.3-.9.6-1.2,1s-.6.9-.8,1.4c-.2.5-.3,1.1-.3,1.6s0,.9.2,1.4c.1.5.4.9.6,1.2.3.4.6.6,1,.9h0c.5.3,1.1.4,1.7.3,1.2-.3,1.6-1.9,1.6-1.9h0c-.2.1-.4.2-.6.3-.5.2-1,.1-1.3-.2-.3-.2-.5-.5-.6-.8-.2-.3-.3-.7-.4-1s-.1-.7-.1-1,0-.6.1-.9c0-.3.2-.6.3-.8.1-.2.3-.4.6-.6.2-.1.5-.2.8-.2s.4,0,.5.1c.2.1.3.3.4.4.1.2.2.4.3.7,0,.3.2.6.2.8,0,.3,0,.5.1.8,0,.3,0,.5,0,.7,0,.4,0,.6,0,.9,0,.2,0,.4,0,.6,0,.2-.4,1.5-.4,1.5,0,.2-.1.3-.2.5-.3.6-.6,1.2-1.1,1.7-.4.5-.9.9-1.5,1.2-.5.3-1.1.5-1.7.5h-.4v1.1h.8c.9,0,1.9-.2,2.7-.6.8-.4,1.6-1,2.2-1.7.6-.7,1.1-1.5,1.5-2.4.4-.9.6-1.8.6-2.8s0-1.1-.2-1.7c-.2-.6-.4-1.2-.7-1.6h0Z"/>
        <path class="st2" d="M95.5,131.8c-.3-.5-.8-.9-1.3-1.3-.5-.3-1.1-.5-1.8-.5s-1.2.1-1.6.4c-.5.3-.9.6-1.2,1s-.6.9-.8,1.4c-.2.5-.3,1.1-.3,1.6s0,.9.2,1.4c.1.5.4.9.6,1.2.3.4.6.6,1,.9h0c.5.3,1.1.4,1.7.3,1.2-.3,1.6-1.9,1.6-1.9h0c-.2.1-.4.2-.6.3-.5.2-1,.1-1.3-.2-.3-.2-.5-.5-.6-.8-.2-.3-.3-.7-.4-1s-.1-.7-.1-1,0-.6.1-.9c0-.3.2-.6.3-.8.1-.2.3-.4.6-.6.2-.1.5-.2.8-.2s.4,0,.5.1c.2.1.3.3.4.4.1.2.2.4.3.7,0,.3.2.6.2.8,0,.3,0,.5.1.8,0,.3,0,.5,0,.7,0,.4,0,.6,0,.9,0,.2,0,.4,0,.6,0,.2-.4,1.5-.4,1.5,0,.2-.1.3-.2.5-.3.6-.6,1.2-1.1,1.7-.4.5-.9.9-1.5,1.2-.5.3-1.1.5-1.7.5h-.4v1.1h.8c.9,0,1.9-.2,2.7-.6.8-.4,1.6-1,2.2-1.7.6-.7,1.1-1.5,1.5-2.4.4-.9.6-1.8.6-2.8s0-1.1-.2-1.7c-.2-.6-.4-1.2-.7-1.6h0Z"/>
        <path class="st2" d="M84.4,136.9c-.3-.3-.7-.7-1-.9-.2-.2-.4-.4-.7-.5l-.3-.2s0,0,0,0c-.2-.2-.5-.4-.7-.6-.2-.2-.5-.4-.7-.6-.2-.2-.4-.4-.5-.7-.1-.2-.2-.4-.2-.7s0-.4.1-.5c0-.2.2-.3.3-.5.1-.1.3-.2.5-.3.2,0,.3-.1.5-.1s.5,0,.7.1c.2.1.4.2.6.4.2.2.3.4.4.6.1.2.1.4.1.7s0,.4,0,.5c0,.1,0,.3-.1.3l-.4,1.1s.8.2,1.6-.4c0,0,0,0,0,0,.2-.2.4-.4.5-.7.1-.3.2-.6.2-.9s0-.7-.2-1.1c-.2-.3-.4-.7-.7-.9s-.7-.5-1.1-.6c-.8-.3-1.8-.3-2.7,0-.4.1-.8.3-1.1.6-.3.3-.6.6-.8,1-.2.4-.3.8-.3,1.3s0,.8.2,1.2c.1.3.3.6.5.9.2.3.5.5.7.7.1.1.3.2.4.3-.1.1-.3.2-.4.3-.3.2-.6.5-.8.8-.2.3-.4.6-.6.9-.2.4-.2.7-.2,1.2s0,.5.2.9c.1.4.3.7.6,1.1s.7.6,1.1.9c.5.3,1.1.4,1.8.4s.9,0,1.4-.2.8-.4,1.2-.7c.3-.3.6-.6.8-1.1.2-.4.3-.9.3-1.4s-.1-.9-.4-1.4c-.2-.4-.5-.8-.8-1.1h0ZM83.5,140.7c-.1.2-.2.4-.4.5-.2.2-.3.3-.5.4-.5.2-1,.2-1.3,0-.2-.1-.4-.3-.6-.5s-.3-.4-.4-.7c0-.3-.1-.6-.1-.8,0-.5.1-.9.4-1.3h0c.2-.4.5-.7.8-.9.4.3.7.6,1,.9.3.3.6.6.8.8.2.2.3.5.4.7,0,.2.1.4.1.6s0,.4-.1.6h0Z"/>
        <path class="st2" d="M22.8,98.8l3.8-5.2-1-3-.9.3v.3c.1.3.2.6.2.8,0,.2,0,.4-.1.6,0,.2-.2.4-.3.6-.1.2-.3.4-.5.7l-1.6,2.2c-.1-.1-.2-.3-.3-.4-.2-.3-.5-.5-.8-.6-.3-.2-.6-.3-1-.3-.4,0-.7,0-1.1.1-.2,0-.5.2-.8.4-.3.2-.5.5-.8.9-.2.4-.3.8-.4,1.3s0,1.2.3,1.9l1.4,4.4,1-.3v-.4c-.2-.4-.3-.6-.3-.7,0-.2,0-.2,0-.2,0,0,.1-.1.3-.2.2,0,.4-.2.7-.3l7.8-2.6-.7-2-5,1.6h0ZM19.9,99.7c-.3.1-.5.1-.6.1-.2,0-.2,0-.3,0,0,0-.1-.1-.2-.2,0-.1,0-.2-.1-.3,0-.2-.1-.5,0-.7,0-.2,0-.4.2-.6,0-.2.2-.3.4-.5.2-.1.4-.2.6-.3.2,0,.5-.1.7-.1s.1,0,.2,0c.3,0,.5.1.6.3.2.1.3.3.5.5.1.2.3.5.3.7v.3c.1,0-2.3.8-2.3.8Z"/>
        <path class="st2" d="M25.1,86.5h-1c0,.1,0,.5,0,.5v.4c0,.1,0,.2,0,.3,0,0,0,.1,0,.1,0,0,0,0,0,0,0,0-.2,0-.4,0-.2,0-.4-.1-.5-.1l-1.2-.3-.4-3.3,3.1-1.7-.2-2.1-10.1,5.4v.8c0,0,11.3,3.4,11.3,3.4l-.4-3.4h0ZM17.9,86l2.5-1.4.3,2.2-2.7-.8h0Z"/>
        <path class="st2" d="M17.3,78h-.3c-.7-.3-1-.5-1.1-.6-.3-.3-.5-.8-.4-1.6l.2-2.9,8,6.6h.8c0,0,.6-8.5.6-8.5l-3.3-.8v1c0,0,.2.1.2.1.3.1.6.3.8.4.2.1.3.3.4.5.1.2.2.5.2.9,0,.4,0,1,0,1.7v1.7c-.1,0-8.8-7-8.8-7l-.6,9,3.2.6v-1.1c0,0,0,0,0,0Z"/>
        <path class="st2" d="M16.4,67.2c.4.6.8,1,1.4,1.5.6.4,1.2.7,2,.9.5.1,1,.2,1.5.2s.5,0,.7,0c.7-.1,1.3-.3,1.9-.6s1.1-.8,1.5-1.3.7-1.2.9-1.8h0c.2-.7.2-1.4,0-2-.1-.7-.3-1.3-.7-1.8-.4-.6-.8-1-1.4-1.5-.6-.4-1.3-.7-2-.9-.8-.2-1.5-.2-2.2-.1-.7.1-1.3.3-1.9.6s-1.1.8-1.5,1.3c-.4.5-.7,1.2-.9,1.8s-.2,1.4,0,2c.1.7.3,1.3.7,1.8ZM17,63.6h0c.1-.4.3-.8.5-1.1s.6-.6,1-.8c.4-.2.9-.3,1.4-.3,0,0,.2,0,.3,0,.5,0,1,0,1.5.2.7.2,1.2.4,1.7.7.5.3.8.6,1.1,1,.3.3.4.7.5,1.1,0,.4,0,.8,0,1.2-.1.4-.3.8-.5,1.1s-.6.6-1,.8c-.4.2-.9.3-1.4.3-.5,0-1.2,0-1.8-.2-.7-.2-1.2-.4-1.7-.7-.5-.3-.8-.6-1.1-1-.3-.3-.4-.7-.5-1.1,0-.4,0-.8,0-1.2Z"/>
        <path class="st2" d="M54.9,18.8l.4,7.7-5.7-5.2-2.6,1.2.4.9h.3c.2-.2.3-.2.4-.2.1,0,.3,0,.4.1.1,0,.3.2.4.3.2.1.3.3.4.4l6.7,6.1.7-.3-.5-11.5-1.4.6h0Z"/>
        <path class="st2" d="M66.8,22.8v.3c0,.3,0,.6,0,.9,0,.2,0,.4-.2.5,0,.1-.2.3-.3.3-.2.1-.4.2-.7.3l-1.1.3c-.4.1-.7.1-.8,0-.2,0-.3-.1-.4-.2-.1-.1-.2-.2-.2-.4,0-.2-.1-.3-.1-.5l-.6-2.1,2.3-.6c.2,0,.3,0,.4,0,0,0,0,0,.1,0,0,0,0,.1.1.3v.4c0,0,1.1-.3,1.1-.3l-.7-2.7-1,.3v.4c.1.1.1.2.1.2,0,0,0,0,0,0-.1,0-.2.1-.4.2l-2.3.6-.8-3,2-.5c.3,0,.6-.1.8-.2.2,0,.3,0,.4,0,.1,0,.2.1.3.2.1.2.3.4.4.7v.3c.1,0,1.1-.3,1.1-.3l-.9-2.7-7.9,2.1.3,1h.4c.4-.2.6-.2.7-.2s.2,0,.2,0c0,0,.1.2.2.3,0,.2.1.4.2.7l2.1,8,6.6-1.8-.2-3.2-1.1.3h0Z"/>
        <path class="st2" d="M68.7,16.6c0,.2,0,.4,0,.7l.8,8.2,2.1-.2-.5-5.2,4.2,4.8,3.1-.3v-1h-.4c-.3,0-.6,0-.8,0-.2,0-.4-.2-.6-.3-.2-.1-.4-.3-.5-.4-.2-.2-.4-.4-.6-.6l-1.8-2c.2,0,.3-.1.4-.2.3-.2.6-.4.8-.7.2-.3.4-.6.5-.9.1-.3.2-.7.1-1.1,0-.3-.1-.5-.2-.8-.1-.3-.4-.6-.7-.9-.3-.3-.7-.5-1.2-.6-.5-.2-1.1-.2-1.9-.1l-4.6.4v1c.1,0,.5,0,.5,0,.4,0,.6,0,.7,0,.2,0,.2,0,.2,0,0,0,0,.2.1.3h0ZM70.9,16.5c0-.2.1-.2.2-.3,0,0,.1,0,.2-.1.1,0,.2,0,.3,0,0,0,.1,0,.2,0,.2,0,.3,0,.5,0,.2,0,.4.2.5.3s.3.3.4.5.2.4.2.7c0,.3,0,.6,0,.9,0,.2-.2.4-.4.6-.2.2-.4.3-.6.4-.3,0-.5.1-.8.2h-.4s-.2-2.4-.2-2.4c0-.3,0-.5,0-.6h0Z"/>
        <path class="st2" d="M89.4,20.4c0-.4,0-.8,0-1.2,0-.4-.1-.8-.3-1.2-.1-.4-.3-.8-.6-1.1-.2-.4-.5-.7-.9-.9-.3-.2-.6-.4-1-.6-.3-.2-.7-.3-1.1-.4-.4,0-.7-.2-1.1-.2-.4,0-.7,0-1-.1l-4.1-.4v1c-.1,0,.3,0,.3,0,.4,0,.6,0,.7.1.1,0,.2.1.2.1,0,0,0,.2,0,.3,0,.2,0,.4,0,.7l-.8,8.2,3.5.3c.3,0,.5,0,.8,0,.6,0,1.2,0,1.7-.2.7-.2,1.4-.5,1.9-1s.9-1,1.2-1.6c.3-.6.5-1.3.5-2h0ZM87,20.2c0,.5-.2,1.1-.4,1.5-.2.5-.5.9-.8,1.2-.3.3-.7.6-1.2.7-.4.2-1,.2-1.5.2-.2,0-.5,0-.7-.1-.1,0-.3,0-.4-.1l.6-6.1c0-.5.1-.8.3-1,.1-.2.3-.4.4-.4.1,0,.3-.1.5-.1.6,0,1.1.2,1.5.4.4.2.8.6,1,.9.3.4.4.8.5,1.3.1.5.1,1,0,1.6h0Z"/>
        <path class="st2" d="M95.4,16.4l-7.3,9.1,3.3.9.3-.9h-.3c-.1-.2-.2-.2-.4-.3,0,0-.2,0-.2-.1,0,0,0,0-.1-.1,0,0,0,0,0,0,0,0,0-.2.2-.3.1-.2.2-.3.3-.4l.8-1,3.2.9.4,3.5,2,.5-1.3-11.4-.7-.2h0ZM92.7,22l1.8-2.2.4,2.8-2.1-.6Z"/>
        <path class="st2" d="M108.7,22.8c-.2-.3-.4-.6-.7-.9-.3-.3-.6-.5-.9-.7-.3-.2-.6-.4-.9-.6-.3-.2-.6-.3-.9-.5l-3.7-1.8-.4.9.3.2c.3.2.5.3.6.4,0,0,.1.1.1.2,0,0,0,.2,0,.3,0,.2-.2.4-.3.7l-3.6,7.4,3.2,1.5c.8.4,1.6.6,2.4.7.1,0,.3,0,.4,0,.6,0,1.2,0,1.7-.3.6-.2,1.2-.6,1.7-1.1.5-.5.9-1,1.2-1.7.2-.4.3-.8.4-1.2s.2-.8.2-1.2c0-.4,0-.8-.1-1.2-.1-.4-.3-.8-.5-1.2h0ZM107,25.1c0,.5-.2,1-.5,1.5-.2.5-.5.9-.9,1.3-.3.4-.7.6-1.1.8-.4.2-.9.3-1.3.3h0c-.5,0-1-.1-1.5-.4-.2-.1-.4-.2-.6-.4-.1,0-.2-.2-.4-.3l2.6-5.5c.2-.4.4-.7.6-.8.2-.2.4-.2.5-.3.2,0,.4,0,.6,0,.5.3.9.6,1.3.9.3.4.5.8.6,1.2.1.4.1.9,0,1.4h0Z"/>
        <path class="st2" d="M139,56.2l-7.7.3,5.3-5.6-1.2-2.7-.9.4v.3c.2.2.2.3.2.4,0,.1,0,.3-.1.4,0,.1-.2.3-.3.4-.1.2-.3.3-.4.4l-6.2,6.6.3.7,11.5-.3-.6-1.4h0Z"/>
        <rect class="st2" x="129.9" y="60.4" width="10.5" height="2.1" transform="translate(-12.1 42.3) rotate(-17)"/>
        <path class="st2" d="M140.1,62.7c0,.4,0,.6,0,.7,0,.1,0,.2,0,.2,0,0-.2.1-.3.1-.2,0-.4.1-.7.2l-8.1,1.5.4,2.1,5.1-.9-4.5,4.6.6,3.1,1-.2v-.3c0-.3,0-.6,0-.8,0-.2.1-.4.2-.6.1-.2.2-.4.4-.6.2-.2.4-.4.6-.6l1.9-2c0,.1.2.3.3.4.2.3.4.5.7.7.3.2.6.4.9.5.3,0,.7.1,1.1,0,.2,0,.5-.1.8-.3.3-.2.6-.4.9-.7.2-.3.4-.8.5-1.3.1-.5,0-1.2,0-1.9l-.8-4.5-1,.2v.4c0,0,0,0,0,0ZM140.5,66.3c0,.1,0,.2,0,.3,0,.2,0,.5,0,.7s-.1.4-.3.6c-.1.2-.3.3-.5.4s-.4.2-.7.2c-.3,0-.6,0-.9,0-.2,0-.4-.2-.6-.3-.2-.2-.3-.4-.4-.6-.1-.3-.2-.5-.2-.8v-.4c0,0,2.4-.5,2.4-.5.3,0,.5,0,.6,0,.2,0,.2,0,.3.1,0,0,.1.1.1.2h0Z"/>
        <path class="st2" d="M139.7,74h.3c1,.2,1.2.5,1.3.6.1.2.3.5.3,1.4v.5l-9.1.2v2.2s9.2-.2,9.2-.2v.4c0,1-.1,1.3-.2,1.4,0,0-.3.3-1.3.6h-.3c0,0,0,1.1,0,1.1l3.2-.2-.2-9h-3.2c0,0,0,1,0,1h0Z"/>
        <path class="st2" d="M141.9,83.9c0,.4-.1.6-.2.7,0,0,0,.2-.1.2,0,0-.2,0-.3,0-.2,0-.4,0-.7,0l-4.3-.7c-.5,0-1,0-1.5,0-.5,0-1,.2-1.4.4s-.8.6-1.1,1.1c-.3.5-.5,1.2-.6,2-.1.8-.1,1.5,0,2.1.2.6.4,1,.8,1.4.3.4.8.7,1.2.8.5.2.9.3,1.4.4l6.5,1,.2-1.4-5.8-.9c-.2,0-.4,0-.6-.1-.2,0-.4,0-.7-.2-.2,0-.4-.1-.6-.2-.2,0-.3-.2-.5-.3-.3-.3-.5-.6-.6-1.1-.1-.4-.1-.9,0-1.3,0-.2,0-.4.2-.6,0-.2.2-.4.3-.5s.3-.3.4-.4c.2-.1.3-.2.6-.2.1,0,.2,0,.4,0s.4,0,.6,0c.2,0,.4,0,.6,0,.2,0,.4,0,.5,0l6,.9.5-3.5-1-.2v.4c0,0,0,0,0,0Z"/>
        <path class="st2" d="M140.1,94.9c-.1.4-.2.5-.3.6,0,.1-.2.1-.2.2,0,0-.2,0-.3,0-.2,0-.4-.1-.7-.2l-7.8-2.7-1.2,3.3c-.3.9-.4,1.7-.4,2.4,0,.8.2,1.4.5,2.1s.7,1.1,1.3,1.6c.5.4,1.1.8,1.8,1,.4.1.8.2,1.2.3.2,0,.5,0,.7,0s.4,0,.5,0c.4,0,.8-.1,1.2-.3.4-.1.8-.4,1.1-.6.3-.2.6-.5.8-.8.2-.3.4-.6.6-1,.2-.3.3-.7.5-1,.1-.3.3-.7.4-1l1.4-3.9-1-.3v.4c-.1,0-.1,0-.1,0ZM138.5,98.8c-.2.5-.5,1-.8,1.4-.3.3-.7.6-1.1.8-.4.2-.9.2-1.4.2-.5,0-1-.1-1.6-.3-.5-.2-1-.4-1.4-.7-.4-.3-.7-.7-1-1-.2-.4-.4-.8-.4-1.3,0-.5,0-1,.2-1.5,0-.2.2-.4.3-.7,0-.1.1-.3.2-.4l5.8,2c.4.2.7.3.9.5.2.2.3.4.3.5,0,.2,0,.4,0,.6h0Z"/>
        <path class="st2" d="M22.3,48.8l.2-.6v-.2c0,0-.7-.3-.7-.3l-.6,1.4-.5,1.1,5.8,2.5-7.7,2.1h0s0,.1,0,.1h0l-.6,1.3,9.6,4.2.7-1.5-4.7-2.1-1.4-.6,8.4-2.4h0s.4-.9.4-.9l-8.6-3.8s-.4-.1-.2-.4h0Z"/>
      </g>
    </g>
    <g>
      <g>
        <path class="st2" d="M186.9,62.1c0,1.1-.1,2.2-.4,3.2-.3,1.1-.7,2.1-1.4,2.9-.7.9-1.6,1.6-2.8,2.1s-2.7.8-4.6.8-3.5-.3-4.7-.8c-1.2-.5-2.1-1.2-2.8-2-.7-.8-1.1-1.8-1.4-2.9-.3-1.1-.4-2.2-.4-3.4v-10.7c0-.7,0-1.4,0-1.9,0-.5-.2-.9-.4-1.2-.2-.3-.5-.5-1-.6-.5-.1-1.1-.2-1.9-.2v-.6h6.7v14c0,.4,0,.8,0,1.2,0,.5,0,.9,0,1.5s0,1,.1,1.4c0,.5.2.8.3,1.1.2.6.5,1.1.9,1.5.4.4.8.8,1.3,1.1s1,.5,1.6.6c.6.1,1.2.2,1.7.2,1.2,0,2.3-.2,3.5-.7,1.2-.5,2.1-1.2,2.8-2.2.3-.4.5-.9.7-1.5.2-.5.3-1.1.3-1.7,0-.6.1-1.2.1-1.7,0-.6,0-1.1,0-1.6v-13.4h1.5v15.1h0Z"/>
        <path class="st2" d="M218.1,47h3.4v23.7h-3.4v-23.7Z"/>
        <path class="st2" d="M238.6,71.2h-.6l-8.4-19.8c-.2-.5-.4-.9-.6-1.3-.2-.4-.5-.8-.7-1.2-.3-.3-.6-.6-1-.9-.4-.2-.8-.4-1.4-.4v-.6h5.6l7.8,18.9,7.5-18.9h1.7l-9.9,24.2h0Z"/>
        <path class="st2" d="M256.5,57.7h6.6c.5,0,1,0,1.3-.1s.6-.2.8-.5c.2-.2.3-.5.3-1h.6v4.9h-.6c0-.6,0-1-.2-1.3-.2-.3-.4-.5-.8-.6-.3-.1-.8-.2-1.3-.2h-6.6v6.3c0,.4,0,.8,0,1.3,0,.5.2.9.4,1.4.3.4.7.8,1.2,1.1s1.4.4,2.4.4h2.7c.8,0,1.4,0,2-.3.5-.2,1-.4,1.4-.8s.7-.9,1-1.4c.3-.6.5-1.3.7-2.1h1l-1.3,5.9h-15v-19.1c0-.7,0-1.4,0-1.9,0-.5-.2-.9-.4-1.2-.2-.3-.5-.5-1-.6-.5-.1-1.1-.2-1.9-.2v-.6h18.2l.3,5.2h-.7c-.2-.9-.4-1.6-.6-2.1-.2-.5-.5-.9-.9-1.2-.4-.3-.9-.4-1.4-.5-.6,0-1.3-.1-2.1-.1h-6v9.4h0Z"/>
        <path class="st2" d="M274.4,51.5c0-.7,0-1.4,0-1.9,0-.5-.2-.9-.4-1.2-.2-.3-.5-.5-1-.6-.5-.1-1.1-.2-1.9-.2v-.6h10.3c1.7,0,3.1.2,4.2.7,1.1.4,1.9,1,2.5,1.6.6.6,1,1.3,1.2,2,.2.7.3,1.3.3,1.8,0,.9-.2,1.6-.5,2.3-.3.7-.8,1.3-1.3,1.8-.5.5-1.2.9-1.9,1.2-.7.3-1.5.6-2.2.7l4.6,6.4c.4.6.8,1.2,1.3,1.7.4.5.8,1,1.3,1.3.5.4,1,.7,1.6.9.6.2,1.3.4,2.1.5v.6h-6.3l-8.7-12.2c.7,0,1.5,0,2.2-.3.7-.2,1.4-.5,1.9-.9.6-.4,1-.9,1.3-1.6.3-.7.5-1.5.5-2.5s-.1-1.4-.3-2c-.2-.6-.6-1.1-1-1.6-.4-.4-.9-.8-1.5-1s-1.3-.4-2-.4-.6,0-.9,0c-.3,0-.6.1-.9.3-.3.2-.6.5-.8,1-.2.5-.3,1.1-.3,1.9v19.1h-3.4v-19.1h0Z"/>
        <path class="st2" d="M296.7,63.1c.1,1.4.5,2.6,1,3.5.5.9,1.2,1.6,1.9,2,.7.5,1.4.8,2.2,1,.7.2,1.4.3,1.9.3s1.2,0,1.8-.2c.6-.2,1.1-.4,1.5-.7.4-.3.8-.7,1.1-1.2.3-.5.4-1.1.4-1.7s-.3-1.7-.9-2.4c-.6-.7-1.4-1.3-2.3-1.9-.9-.6-1.9-1.2-3-1.7s-2.1-1.2-3-1.9c-.9-.7-1.7-1.4-2.3-2.3-.6-.9-.9-1.9-.9-3.1s.2-1.7.5-2.5c.4-.8.8-1.4,1.5-2,.6-.6,1.4-1,2.2-1.3.8-.3,1.7-.5,2.6-.5s1.2,0,1.8.2,1,.3,1.5.5c.2.1.5.3.7.5.3.2.6.4.9.6.3.2.7.3,1.1.3.4,0,.8,0,1.2-.4v6.5h-.8c0-.9-.3-1.8-.6-2.7-.3-.8-.8-1.5-1.3-2.2-.6-.6-1.3-1.1-2-1.4-.8-.4-1.7-.5-2.7-.5s-1,0-1.5.3c-.5.2-.9.4-1.3.8-.4.3-.7.7-.9,1.2-.2.5-.4.9-.4,1.5,0,.8.3,1.6,1,2.2.7.6,1.5,1.2,2.4,1.8,1,.6,2,1.1,3.2,1.7,1.1.5,2.2,1.2,3.2,1.8,1,.7,1.8,1.5,2.4,2.3.7.9,1,1.9,1,3s-.2,1.8-.6,2.6-.9,1.6-1.6,2.2c-.7.6-1.5,1.1-2.4,1.5-.9.4-2,.5-3.1.5s-1.5,0-2.1-.2c-.6-.1-1.1-.3-1.6-.5-.2,0-.5-.2-.7-.4-.2-.2-.5-.3-.8-.4-.3-.1-.7-.3-1.1-.4-.4-.1-1-.2-1.7-.2v-6.1h.7Z"/>
        <path class="st2" d="M317.3,47h3.4v23.7h-3.4v-23.7Z"/>
        <path class="st2" d="M329,51.5c0-.7,0-1.4,0-1.9,0-.5-.2-.9-.4-1.2-.2-.3-.5-.5-1-.6-.5-.1-1.1-.2-1.9-.2v-.6h9.2c.8,0,1.6,0,2.5,0,.9,0,1.7.1,2.6.2.9.1,1.7.3,2.5.6.8.3,1.6.6,2.3,1.1.8.5,1.5,1.2,2.1,1.9.6.7,1.1,1.5,1.5,2.4.4.8.7,1.7.9,2.7.2.9.3,1.9.3,2.8,0,1.6-.3,3.1-.8,4.6-.5,1.4-1.3,2.7-2.4,3.8-1.1,1.1-2.4,2-4,2.6-1.6.6-3.5.9-5.6.9h-7.7v-19.1h0ZM332.3,68.9c.6.2,1.2.3,1.9.3.6,0,1.2.1,1.9.1,1.5,0,2.9-.3,4-.8,1.2-.6,2.1-1.3,2.9-2.3.8-1,1.4-2.1,1.8-3.4.4-1.3.6-2.6.6-4.1s-.2-2.8-.6-4.1c-.4-1.3-1-2.4-1.8-3.4-.8-1-1.8-1.7-3-2.3-1.2-.5-2.6-.8-4.1-.8-.7,0-1.3.3-1.8.6s-.9.8-1.2,1.5c-.4.7-.5,1.7-.5,2.9v15.7h0Z"/>
        <path class="st2" d="M375.2,51.5c0-.7,0-1.4,0-1.9,0-.5-.2-.9-.4-1.2-.2-.3-.5-.5-1-.6-.5-.1-1.1-.2-1.9-.2v-.6h9.2c.8,0,1.7,0,2.5,0,.9,0,1.7.1,2.6.2.9.1,1.7.3,2.5.6.8.3,1.6.6,2.3,1.1.8.5,1.5,1.2,2.1,1.9.6.7,1.1,1.5,1.5,2.4.4.8.7,1.7.9,2.7.2.9.3,1.9.3,2.8,0,1.6-.3,3.1-.8,4.6-.5,1.4-1.3,2.7-2.4,3.8-1.1,1.1-2.4,2-4,2.6-1.6.6-3.5.9-5.6.9h-7.7v-19.1h0ZM378.5,68.9c.6.2,1.2.3,1.9.3.6,0,1.2.1,1.9.1,1.5,0,2.9-.3,4-.8,1.2-.6,2.1-1.3,2.9-2.3.8-1,1.4-2.1,1.8-3.4.4-1.3.6-2.6.6-4.1s-.2-2.8-.6-4.1c-.4-1.3-1-2.4-1.8-3.4-.8-1-1.8-1.7-3-2.3-1.2-.5-2.6-.8-4.1-.8-.7,0-1.3.3-1.8.6s-.9.8-1.2,1.5c-.4.7-.6,1.7-.6,2.9v15.7h0Z"/>
        <path class="st2" d="M210,46.9h-1.5s0,17.7,0,17.7h0v-.2c-.1,0-.1,0-.1,0l-14.3-17.5h0s-1.8,0-1.8,0v23.7h1.3s.2,0,.2,0v-18.2h0v-.5h0l15.6,19.1h.4s.7,0,.7,0v-20.1c0-.7,0-1.2,0-1.6,0-.4.1-.8.3-1.1.2-.3.5-.5.9-.6.4-.1.7-.2,1.5-.2v-.6h-3.2Z"/>
        <path class="st2" d="M362.1,46.4h-.6l-10.7,24.2h5.9v-.6c-.3,0-.7,0-1-.1-.3,0-.6-.1-.9-.2-.3-.1-.5-.3-.6-.5-.2-.2-.2-.5-.2-.8s.1-.7.3-1.2c.2-.4.3-.7.4-.9h0v-.3c.1,0,1.5-3.3,1.5-3.3h9.2l3.2,7.9h3.1l-9.6-24.2h0ZM356.7,61.4l4.1-9.5,4,9.5h-8.2Z"/>
      </g>
      <g>
        <path class="st2" d="M263.9,100.5c.2,1.9.6,3.4,1.4,4.5s1.5,2,2.5,2.7c.9.6,1.9,1,2.8,1.3,1,.2,1.8.3,2.5.3s1.5,0,2.3-.3c.7-.2,1.4-.5,2-.9.6-.4,1-.9,1.4-1.6s.5-1.4.5-2.2c0-1.2-.4-2.2-1.2-3.1-.8-.9-1.8-1.7-3-2.5-1.2-.8-2.5-1.5-3.9-2.2-1.4-.7-2.7-1.5-3.9-2.4-1.2-.9-2.2-1.9-3-3-.8-1.1-1.2-2.5-1.2-4s.2-2.3.7-3.3c.5-1,1.1-1.9,1.9-2.6.8-.7,1.8-1.3,2.8-1.7,1.1-.4,2.2-.6,3.4-.6s1.6,0,2.3.3c.7.2,1.3.4,1.9.6.3.1.6.3,1,.6.4.3.8.5,1.2.8.4.2.9.4,1.4.5.5,0,1-.1,1.6-.5v8.4h-1c0-1.2-.4-2.4-.8-3.5-.4-1.1-1-2-1.7-2.8-.7-.8-1.6-1.4-2.7-1.9-1-.5-2.2-.7-3.5-.7s-1.3.1-2,.4c-.6.2-1.2.6-1.7,1-.5.4-.9,1-1.2,1.5-.3.6-.5,1.2-.5,1.9,0,1.1.4,2,1.3,2.9.9.8,1.9,1.6,3.2,2.3s2.6,1.5,4.1,2.2c1.5.7,2.9,1.5,4.1,2.4s2.3,1.9,3.2,3c.9,1.1,1.3,2.4,1.3,4s-.2,2.4-.7,3.4c-.5,1.1-1.2,2-2.1,2.9-.9.8-1.9,1.5-3.2,1.9-1.2.5-2.6.7-4.1.7s-2,0-2.8-.3c-.8-.2-1.5-.4-2.1-.6-.3-.1-.6-.3-.9-.5-.3-.2-.6-.4-1-.6-.4-.2-.9-.3-1.4-.5-.6-.1-1.3-.2-2.2-.2v-7.9h.8Z"/>
        <path class="st2" d="M294.8,93.4h8.6c.7,0,1.3,0,1.7-.2.5-.1.8-.3,1-.6.2-.3.3-.7.3-1.3h.8v6.4h-.8c0-.7-.1-1.3-.3-1.7-.2-.4-.5-.7-1-.8-.5-.1-1-.2-1.7-.2h-8.6v8.3c0,.5,0,1,0,1.6,0,.6.2,1.2.6,1.8.3.6.8,1,1.6,1.4.7.4,1.8.6,3.1.6h3.6c1,0,1.9-.1,2.6-.3.7-.2,1.3-.6,1.8-1.1.5-.5.9-1.1,1.3-1.9.3-.8.7-1.7,1-2.8h1.3l-1.6,7.8h-19.6v-25c0-1,0-1.8,0-2.4,0-.6-.2-1.2-.5-1.6-.3-.4-.7-.7-1.3-.8-.6-.2-1.4-.2-2.5-.2v-.8h23.7l.4,6.8h-.9c-.2-1.2-.5-2.1-.8-2.8-.3-.7-.7-1.2-1.2-1.5-.5-.3-1.1-.6-1.8-.6-.7-.1-1.6-.1-2.7-.1h-7.9v12.2h0Z"/>
        <path class="st2" d="M319,85.4c0-1,0-1.8,0-2.4,0-.6-.2-1.2-.5-1.6-.3-.4-.7-.7-1.3-.8s-1.4-.2-2.5-.2v-.8h14.3c2.2,0,4,.2,5.6.7,1.5.5,2.8,1.1,3.7,1.8.9.8,1.6,1.7,2.1,2.7.4,1,.7,2,.7,3.1,0,1.7-.5,3.2-1.6,4.3-1,1.2-2.3,2-3.9,2.4h0c.9.2,1.8.5,2.6.9.8.4,1.6.9,2.2,1.5.6.6,1.2,1.3,1.5,2.2.4.8.6,1.7.6,2.7s-.1,1.5-.4,2.5c-.3,1-.8,1.9-1.7,2.8-.8.9-2,1.7-3.6,2.3-1.6.6-3.6,1-6.2,1h-11.4v-25h0ZM323.4,108.1c1.6.4,3.4.6,5.3.6s2-.1,3-.4c1-.2,1.9-.6,2.7-1.1.8-.5,1.5-1.2,2-2,.5-.8.8-1.8.8-2.9s-.3-2.5-.9-3.4c-.6-.9-1.4-1.7-2.3-2.2-.9-.5-2-.9-3.1-1.1-1.2-.2-2.3-.3-3.5-.3h-4c0,.1,0,12.8,0,12.8h0ZM332.5,93c1-.5,1.8-1,2.3-1.7.5-.7.9-1.3,1-2,.2-.7.2-1.3.2-1.8,0-1.2-.3-2.2-.8-3.1-.5-.8-1.2-1.5-2-2-.8-.5-1.8-.9-2.8-1.1-1-.2-2.1-.3-3.1-.3-.8,0-1.5.3-2,.6-.5.4-1,1.1-1.4,2.1-.4,1-.6,2.4-.6,4.4v5.6h5.1c1.7,0,3-.2,4-.6h0Z"/>
        <path class="st2" d="M374.8,100.5c.2,1.9.6,3.4,1.4,4.5s1.5,2,2.4,2.7c.9.6,1.9,1,2.8,1.3,1,.2,1.8.3,2.5.3s1.5,0,2.3-.3,1.4-.5,2-.9,1-.9,1.4-1.6.5-1.4.5-2.2c0-1.2-.4-2.2-1.2-3.1-.8-.9-1.8-1.7-3-2.5-1.2-.8-2.5-1.5-3.9-2.2-1.4-.7-2.7-1.5-3.9-2.4-1.2-.9-2.2-1.9-3-3-.8-1.1-1.2-2.5-1.2-4s.2-2.3.7-3.3c.5-1,1.1-1.9,1.9-2.6.8-.7,1.8-1.3,2.8-1.7,1.1-.4,2.2-.6,3.4-.6s1.6,0,2.3.3c.7.2,1.3.4,1.9.6.3.1.6.3,1,.6.4.3.8.5,1.2.8.5.2.9.4,1.4.5.5,0,1-.1,1.6-.5v8.4h-1c0-1.2-.4-2.4-.8-3.5-.4-1.1-1-2-1.7-2.8-.7-.8-1.6-1.4-2.7-1.9-1-.5-2.2-.7-3.5-.7s-1.3.1-2,.4c-.7.2-1.2.6-1.7,1-.5.4-.9,1-1.2,1.5-.3.6-.5,1.2-.5,1.9,0,1.1.4,2,1.3,2.9.9.8,1.9,1.6,3.2,2.3,1.3.7,2.6,1.5,4.1,2.2,1.5.7,2.9,1.5,4.1,2.4s2.3,1.9,3.2,3c.9,1.1,1.3,2.4,1.3,4s-.2,2.4-.7,3.4c-.5,1.1-1.2,2-2,2.9-.9.8-1.9,1.5-3.2,1.9-1.2.5-2.6.7-4.1.7s-2,0-2.8-.3-1.5-.4-2.1-.6c-.3-.1-.6-.3-.9-.5-.3-.2-.6-.4-1-.6-.4-.2-.9-.3-1.5-.5-.6-.1-1.3-.2-2.2-.2v-7.9h.9Z"/>
        <path class="st2" d="M407.9,81.4h-2.6c-2.6,0-4.3.4-5.3,1.1-.9.7-1.6,2.3-2.1,4.9h-1.1l.3-7.9h26.3l.3,7.9h-1.1c-.6-2.5-1.3-4.2-2.1-4.9-.8-.7-2.6-1.1-5.3-1.1h-2.6v28.9h-4.7v-28.9h0Z"/>
        <path class="st2" d="M429.7,79.5h4.4v30.9h-4.4v-30.9Z"/>
        <path class="st2" d="M494.9,79.5h-2s0,23.1,0,23.1h0l-.2-.2h0s-18.6-22.8-18.6-22.8h0s-2.3,0-2.3,0v30.9h2v-24.3h0l20.3,24.8h1.4v-26.2c0-.8,0-1.6,0-2.1,0-.6.2-1.1.4-1.4.2-.4.6-.6,1.2-.7.5-.1.9-.2,1.9-.2v-.7h-4.1Z"/>
        <path class="st2" d="M202.1,78.8h-.8l-13.9,31.6h7.7v-.8c-.4,0-.9,0-1.3-.1-.4,0-.8-.2-1.1-.3-.3-.1-.6-.3-.8-.6-.2-.3-.3-.6-.3-1s.1-1,.4-1.6c.2-.5.4-.9.5-1.2h0l.2-.4,1.8-4.3h12l4.2,10.4h4.1l-12.5-31.6h0ZM195.1,98.4l5.4-12.5,5.3,12.5h-10.7Z"/>
        <path class="st2" d="M243.2,79.5h-2v23.1h0l-.2-.2h0s-18.6-22.8-18.6-22.8h0s-2.3,0-2.3,0v30.9h2v-24.3h0l20.3,24.8h1.4v-26.2c0-.8,0-1.6,0-2.1,0-.6.2-1.1.4-1.4.2-.4.6-.6,1.2-.7.5-.1.9-.2,1.9-.2v-.7h-4.1,0Z"/>
        <path class="st2" d="M359.5,78.7h-.8l-13.9,31.6h7.7v-.8c-.4,0-.9,0-1.3-.1-.4,0-.8-.2-1.2-.3-.3-.1-.6-.3-.8-.6-.2-.3-.3-.6-.3-1s.1-1,.4-1.6c.2-.5.4-.9.5-1.2h0l.2-.4,1.8-4.3h12l4.2,10.4h4.1l-12.5-31.6h0ZM352.5,98.3l5.4-12.5,5.3,12.5h-10.6Z"/>
        <path class="st2" d="M166.1,100.5c.2,1.9.6,3.4,1.4,4.5.7,1.2,1.5,2,2.4,2.7.9.6,1.9,1,2.9,1.3,1,.2,1.8.3,2.5.3s1.5,0,2.3-.3c.8-.2,1.4-.5,2-.9.6-.4,1-.9,1.4-1.6.3-.6.5-1.4.5-2.2,0-1.2-.4-2.2-1.2-3.1-.8-.9-1.8-1.7-3-2.5-1.2-.8-2.5-1.5-3.9-2.2-1.4-.7-2.7-1.5-3.9-2.4-1.2-.9-2.2-1.9-3-3-.8-1.1-1.2-2.5-1.2-4s.2-2.3.7-3.3c.5-1,1.1-1.9,1.9-2.6.8-.7,1.8-1.3,2.8-1.7,1.1-.4,2.2-.6,3.4-.6s1.6,0,2.3.3c.7.2,1.3.4,1.9.6.3.1.6.3,1,.6.4.3.8.5,1.2.8.4.2.9.4,1.4.4.5,0,1,0,1.6-.5v8.4h-1c0-1.2-.4-2.4-.8-3.5-.4-1.1-1-2-1.8-2.8-.7-.8-1.6-1.4-2.7-1.9-1-.5-2.2-.7-3.5-.7s-1.3.1-2,.4c-.7.2-1.2.6-1.7,1-.5.4-.9,1-1.2,1.5-.3.6-.5,1.2-.5,1.9,0,1.1.4,2,1.3,2.9.9.8,1.9,1.6,3.2,2.3s2.6,1.5,4.1,2.2c1.5.7,2.9,1.5,4.1,2.4s2.3,1.9,3.2,3c.9,1.1,1.3,2.4,1.3,4s-.2,2.4-.7,3.4c-.5,1.1-1.2,2-2.1,2.8-.9.8-1.9,1.5-3.2,1.9-1.2.5-2.6.7-4.1.7s-2,0-2.8-.3c-.8-.2-1.5-.4-2.1-.6-.3-.1-.6-.3-.9-.5-.3-.2-.6-.4-1-.6-.4-.2-.9-.3-1.4-.5-.6-.1-1.3-.2-2.2-.2v-7.9h.8,0Z"/>
        <path class="st2" d="M458.5,100h-12l-1.8,4.3c-.2.4-.4.9-.6,1.5-.3.6-.4,1.2-.4,1.6s.1.8.3,1c.2.3.5.4.8.6s.7.2,1.1.3c.4,0,.8.1,1.3.1v.8h-7.7l13.9-31.6h.8l12.5,31.6h-4.1l-4.2-10.4h0ZM452.6,85.8l-5.4,12.5h10.7l-5.3-12.5h0Z"/>
      </g>
    </g>
  </g>
</svg>